<?xml version="1.0" encoding="utf-8"?>
<!-- Generator: Adobe Illustrator 25.0.0, SVG Export Plug-In . SVG Version: 6.00 Build 0)  -->
<svg version="1.1" id="Calque_1" xmlns="http://www.w3.org/2000/svg" xmlns:xlink="http://www.w3.org/1999/xlink" x="0px" y="0px"
	 viewBox="0 0 128 128" style="enable-background:new 0 0 128 128;" xml:space="preserve">
<style type="text/css">
	.st0{fill:#B3B3B3;}
	.st1{fill:#A6120D;}
	.st2{fill:#DD1B16;}
	.st3{fill:#F2F2F2;}
</style>
<path class="st0" d="M63.8,1L8.7,21.9l8.7,77.6L63.9,127l46.7-27.8l8.7-77.6L63.8,1z"/>
<path class="st1" d="M113.8,26L63.7,7.6v112.8l42-25L113.8,26z"/>
<path class="st2" d="M14.9,26.3l7.5,69.4l41.3,24.7V7.6L14.9,26.3z"/>
<path class="st3" d="M77.5,67.7l-13.8,6.9H49.2L42.3,93l-12.7,0.3l34.1-81.5L77.5,67.7z M76.1,64.2L63.8,37.9L53.6,63.7h10
	C63.7,63.7,76.1,64.2,76.1,64.2z"/>
<path class="st0" d="M63.7,11.7l0.1,26.1l11.5,25.9H63.7l0,10.8l16,0l7.5,18.6l12.2,0.2L63.7,11.7z"/>
</svg>
