<?xml version="1.0" encoding="utf-8"?>
<!-- Generator: Adobe Illustrator 25.0.0, SVG Export Plug-In . SVG Version: 6.00 Build 0)  -->
<svg version="1.1" id="Calque_1" xmlns="http://www.w3.org/2000/svg" xmlns:xlink="http://www.w3.org/1999/xlink" x="0px" y="0px"
	 viewBox="0 0 128 128" style="enable-background:new 0 0 128 128;" xml:space="preserve">
<style type="text/css">
	.st0{fill:#0074BD;}
	.st1{fill:#EA2D2E;}
</style>
<path class="st0" d="M47.3,67.8c0,0-4.8,1.9,3.4,2.6c9.9,0.8,14.9,0.7,25.8-0.8c0,0,2.9,1.2,6.9,2.3C59,79.1,28.1,71.5,47.3,67.8z
	 M44.3,58.4c0,0-5.3,2.7,2.8,3.3c10.6,0.8,18.9,0.8,33.3-1.1c0,0,2,1.4,5.1,2.2C56.1,68.7,23.2,63.2,44.3,58.4z"/>
<path class="st1" d="M69.5,42.4c6,4.8-1.6,9.1-1.6,9.1s15.3-5.4,8.3-12.2c-6.6-6.3-11.6-9.5,15.6-20.4
	C91.8,18.9,49.1,26.2,69.5,42.4z"/>
<path class="st0" d="M101.8,74.8c0,0,3.5,2-3.9,3.6c-14.1,2.9-58.6,3.8-71,0.1c-4.4-1.3,3.9-3.2,6.5-3.6c2.7-0.4,4.3-0.3,4.3-0.3
	c-4.9-2.4-32,4.7-13.7,6.8C73.7,86.9,114.7,78.8,101.8,74.8z M49.6,48.6c0,0-22.7,3.7-8,5.1c6.2,0.6,18.5,0.4,30-0.2
	c9.4-0.5,18.8-1.7,18.8-1.7s-3.3,1-5.7,2.1c-23,4.2-67.5,2.2-54.7-2C40.8,48.2,49.6,48.6,49.6,48.6z M90.3,64.3
	c23.4-8.4,12.6-16.4,5-15.4c-1.8,0.3-2.7,0.5-2.7,0.5s0.7-0.7,2-1.1c14.9-3.6,26.4,10.7-4.8,16.3C89.8,64.7,90.1,64.5,90.3,64.3z"/>
<path class="st1" d="M76.2,1.3c0,0,13,8.9-12.3,22.7c-20.2,11-4.6,17.3,0,24.5C52,41.1,43.4,34.7,49.2,28.6
	C57.7,19.8,81.4,15.5,76.2,1.3z"/>
<path class="st0" d="M51.9,87c22.5,1,56.9-0.6,57.8-7.9c0,0-1.6,2.8-18.6,5c-19.2,2.5-42.8,2.2-56.8,0.6
	C34.3,84.7,37.1,86.4,51.9,87z"/>
<path class="st1" d="M108.6,100.2h-0.7v-0.3h1.8v0.3h-0.7v1.3h-0.5C108.6,101.5,108.6,100.2,108.6,100.2z M112.3,100.2L112.3,100.2
	l-0.7,1.3h-0.3l-0.7-1.3h0v1.3h-0.5v-1.6h0.7l0.6,1.1l0.6-1.1h0.7v1.6h-0.4C112.3,101.5,112.3,100.2,112.3,100.2z M48.2,115
	c-2.1,1.3-4.4,2-6.4,2c-2.9,0-4.4-1.2-4.4-3.1c0-2.1,1.7-3.6,8.3-3.6h2.5L48.2,115C48.2,115,48.2,115,48.2,115z M54.1,119.6v-14.1
	c0-3.6-3-6-10.1-6c-4.2,0-7.9,0.7-10.8,1.6l0.9,2.5c2.3-0.6,5.4-1.1,8.4-1.1c4.1,0,5.9,1.1,5.9,3.5v1.8h-2.1
	c-10,0-14.6,2.7-14.6,6.7c0,3.5,3,5.5,8.6,5.5c3.6,0,6.3-1,8.8-2.5l0.5,2.1L54.1,119.6C54.1,119.6,54.1,119.6,54.1,119.6z
	 M73.6,119.6h-7.3l-8.8-19.7h6.4l5.4,12.1l1.2,3.6c2.7-5.3,4.7-10.6,5.7-15.7h6.2C80.7,106.4,77.8,113.5,73.6,119.6z M101.5,115
	c-2.1,1.3-4.4,2-6.4,2c-2.9,0-4.4-1.2-4.4-3.1c0-2.1,1.7-3.6,8.3-3.6h2.5L101.5,115L101.5,115z M107.4,119.6v-14.1c0-3.6-3-6-10.1-6
	c-4.2,0-7.9,0.7-10.8,1.6l0.9,2.5c2.3-0.6,5.4-1.1,8.4-1.1c4.1,0,5.9,1.1,5.9,3.5v1.8h-2.1c-10,0-14.6,2.7-14.6,6.7
	c0,3.5,3,5.5,8.6,5.5c3.6,0,6.3-1,8.8-2.5l0.5,2.1L107.4,119.6C107.4,119.6,107.4,119.6,107.4,119.6z M25.2,122.9
	c-1.7,1.7-4.4,3-7.3,3.8l-2.9-2.3c2.2-0.8,4.2-2.1,5.1-3.3c0.8-1.1,1.1-2.4,1.1-5.7V92.9h6.2v22.2C27.4,119.4,26.9,121.2,25.2,122.9
	z"/>
</svg>
