<?xml version="1.0" encoding="utf-8"?>
<!-- Generator: Adobe Illustrator 25.0.0, SVG Export Plug-In . SVG Version: 6.00 Build 0)  -->
<svg version="1.1" id="Calque_1" xmlns="http://www.w3.org/2000/svg" xmlns:xlink="http://www.w3.org/1999/xlink" x="0px" y="0px"
	 viewBox="0 0 128 128" style="enable-background:new 0 0 128 128;" xml:space="preserve">
<style type="text/css">
	.st0{fill:#F0DB4F;}
	.st1{fill:#323330;}
</style>
<path class="st0" d="M13.8,12.8h102V129h-102V12.8z"/>
<path class="st1" d="M107.5,101.3c-0.7-5.3-3.8-9.8-12.8-13.9c-3.1-1.6-6.6-2.8-7.6-5.5c-0.4-1.6-0.4-2.5-0.2-3.4
	c0.7-3.1,3.9-4,6.5-3.2c1.6,0.6,3.2,2.1,4.2,4.4c4.4-3.2,4.4-3.2,7.5-5.5c-1.1-2-1.7-2.9-2.5-3.8c-2.6-3.4-6.3-5.1-12-5l-3,0.4
	c-2.9,0.8-5.6,2.6-7.2,4.9C75.4,77,76.8,88,82.7,92.5c5.8,5,14.3,6.1,15.4,10.7c1.1,5.7-3.7,7.5-8.3,6.8c-3.5-0.8-5.4-2.8-7.4-6.5
	c-3.8,2.5-3.8,2.5-7.8,5.1c0.9,2.3,1.9,3.4,3.5,5.4c7.4,8.5,25.9,8.1,29.2-4.8C107.3,108.8,108.2,105.8,107.5,101.3z M69.3,66.2
	h-9.5l0,28.1c0,6,0.3,11.5-0.6,13.1c-1.4,3.3-5,2.9-6.7,2.3c-1.7-0.9-2.5-2.3-3.5-4.2c-0.3-0.5-0.5-1-0.5-1l-7.8,5.4
	c1.3,3,3.2,5.6,5.6,7.3c3.6,2.5,8.5,3.2,13.6,1.9c3.3-1.1,6.2-3.4,7.7-6.9c2.2-4.6,1.7-10.1,1.7-16.2C69.3,86.1,69.3,76.2,69.3,66.2
	z"/>
</svg>
