<?xml version="1.0" encoding="utf-8"?>
<!-- Generator: Adobe Illustrator 25.0.0, SVG Export Plug-In . SVG Version: 6.00 Build 0)  -->
<svg version="1.1" id="Calque_1" xmlns="http://www.w3.org/2000/svg" xmlns:xlink="http://www.w3.org/1999/xlink" x="0px" y="0px"
	 viewBox="0 0 500 500" style="enable-background:new 0 0 500 500;" xml:space="preserve">
<style type="text/css">
	.st0{fill:#08D665;}
	.st1{opacity:0.5;fill:#FFFFFF;enable-background:new    ;}
	.st2{opacity:0.7;fill:#FFFFFF;enable-background:new    ;}
	.st3{fill:none;stroke:#263238;stroke-linecap:round;stroke-linejoin:round;}
	.st4{fill:#263238;stroke:#263238;stroke-linecap:round;stroke-linejoin:round;}
	.st5{fill:none;stroke:#FFFFFF;stroke-linecap:round;stroke-linejoin:round;}
	.st6{fill:#263238;}
	.st7{fill:#A6A6A6;}
	.st8{fill:#455A64;}
	.st9{fill:#FFFFFF;}
	.st10{clip-path:url(#SVGID_2_);}
	.st11{fill:#FFFFFF;stroke:#263238;stroke-linecap:round;stroke-linejoin:round;}
	.st12{fill:none;stroke:#FFFFFF;stroke-miterlimit:10;}
	.st13{clip-path:url(#SVGID_4_);}
	.st14{fill:#263238;stroke:#263238;stroke-width:1.0954;stroke-linecap:round;stroke-linejoin:round;}
	.st15{fill:#FFFFFF;stroke:#263238;stroke-width:1.0954;stroke-linecap:round;stroke-linejoin:round;}
	.st16{opacity:0.3;enable-background:new    ;}
	.st17{fill:#407BFF;}
	.st18{opacity:0.8;enable-background:new    ;}
	.st19{opacity:0.5;}
	.st20{opacity:0.2;enable-background:new    ;}
	.st21{opacity:0.5;enable-background:new    ;}
	.st22{opacity:0.7;}
	.st23{enable-background:new    ;}
	.st24{clip-path:url(#SVGID_6_);}
	.st25{fill:#C6D8FF;}
	.st26{fill:#2D56B2;}
	.st27{fill:#D9E5FF;}
	.st28{fill:#6695FF;}
	.st29{fill:#8CB0FF;}
	.st30{fill:#7AA3FF;}
</style>
<g id="freepik--Floor--inject-535">
	<ellipse class="st0" cx="256.3" cy="412.6" rx="211.3" ry="16.8"/>
	<ellipse class="st1" cx="256.3" cy="412.6" rx="211.3" ry="16.8"/>
	<path class="st0" d="M459.7,444.4c0,7.4-17.6,13.5-39.3,13.5s-39.3-6-39.3-13.5s17.6-13.4,39.3-13.4S459.7,437,459.7,444.4z"/>
	<path class="st1" d="M459.7,444.4c0,7.4-17.6,13.5-39.3,13.5s-39.3-6-39.3-13.5s17.6-13.4,39.3-13.4S459.7,437,459.7,444.4z"/>
</g>
<g id="freepik--background-simple--inject-535">
	<path class="st0" d="M254.6,383.2c0,0,81.1,17.6,139.4-29.8s68.2-90.3,78.2-157.1c10-66.8-29.2-129.8-93.5-153.7S291.7,66,215.9,76
		s-99.9,1.5-149.6,50.1S37.7,234.7,112,303S254.6,383.2,254.6,383.2z"/>
	<path class="st2" d="M254.6,383.2c0,0,81.1,17.6,139.4-29.8s68.2-90.3,78.2-157.1c10-66.8-29.2-129.8-93.5-153.7S291.7,66,215.9,76
		s-99.9,1.5-149.6,50.1S37.7,234.7,112,303S254.6,383.2,254.6,383.2z"/>
</g>
<g id="freepik--Plants--inject-535">
	<path class="st0" d="M450.6,196.1c0,0,0-5.6-7.9-13.5s-12.9-12.4-12.9-12.4s-3.9,12.9,3.4,20.8c5.4,5.5,11.2,10.6,17.4,15.2V196.1z
		"/>
	<path class="st0" d="M439.2,231.2c0,0,0-5.6-7.9-13.5s-12.9-12.4-12.9-12.4s-3.9,12.9,3.4,20.8c5.4,5.5,11.2,10.6,17.4,15.2V231.2z
		"/>
	<path class="st0" d="M450.1,205.7c0,0,0.6-5.6,9.2-12.6s14.1-10.9,14.1-10.9s2.5,13.3-5.6,20.3c-5.9,4.9-12.3,9.4-18.9,13.2
		L450.1,205.7z"/>
	<path class="st0" d="M436.4,247.1c0,0,1.2-5.5,10.5-11.5s15.2-9.4,15.2-9.4s1.1,13.5-7.7,19.6c-6.4,4.3-13.2,8-20.2,11.2
		L436.4,247.1z"/>
	<path class="st0" d="M438.9,292.3c0,0,0-5.6,7.9-13.5s12.9-12.4,12.9-12.4s3.9,12.9-3.4,20.8c-5.4,5.5-11.2,10.6-17.4,15.2V292.3z"
		/>
	<path class="st0" d="M438.8,303.3c0,0,0.8-5.6-5.9-14.5c-6.7-8.9-11-14.1-11-14.1s-5.7,12.2,0.4,21c4.5,6.2,9.6,12.1,15.1,17.5
		L438.8,303.3z"/>
	<path class="st0" d="M431,336c0,0,0-5.6,7.9-13.5s12.9-12.4,12.9-12.4s3.9,12.9-3.4,20.8c-5.4,5.5-11.2,10.6-17.4,15.2V336z"/>
	<path class="st0" d="M436.3,365.6c0,0-1.4-5.4,4.2-15s9.4-15.2,9.4-15.2s7.1,11.5,2,21c-3.8,6.7-8.1,13.1-13,19.1L436.3,365.6z"/>
	<path class="st3" d="M451.3,194.7c-0.4,5.8-1.1,11.7-2.1,17.4c-3.1,16.1-10.9,26.4-14,40.9c-3.1,14.5,5.8,33.2,3.4,51.8
		c-2.4,18.6-9.6,29-7.6,41.4c2.1,12.4,13,46.1,13,46.1"/>
	<line class="st3" x1="450" y1="209.4" x2="458.5" y2="202.9"/>
	<line class="st3" x1="450.5" y1="201.9" x2="446.9" y2="195.6"/>
	<path class="st3" d="M435.7,252.4c0,0,7.1-5.3,14.4-10.6"/>
	<path class="st3" d="M439.2,241.3c0,0-5.9-11.6-12.6-19.3"/>
	<path class="st3" d="M439.2,300.2c4-7.4,9.2-14.3,15.2-20.2"/>
	<path class="st3" d="M437.8,308.1c-2.2-5.1-4.7-9.9-7.7-14.6c-4.1-6.1-4.7-6.9-4.7-6.9"/>
	<path class="st3" d="M431,346.3c1.8-4.5,3.9-8.8,6.4-12.9c2.5-3.8,5.2-7.5,8.3-10.8"/>
	<path class="st3" d="M438.9,375.4c0,0-0.9-6.7,2.1-12.4s6.3-13.2,7.7-16.2"/>
	<path class="st0" d="M399.1,271.1c0,0-0.6-3.5,3.5-9.3s6.8-9.1,6.8-9.1s3.9,7.7,0.1,13.4c-2.8,4.1-5.9,7.9-9.3,11.4L399.1,271.1z"
		/>
	<path class="st0" d="M410.1,291.9c0,0-0.6-3.5,3.5-9.3s6.8-9.2,6.8-9.2s3.9,7.7,0.1,13.4c-2.8,4.1-5.9,7.9-9.3,11.4L410.1,291.9z"
		/>
	<path class="st0" d="M400.5,277.1c0,0-1-3.4-7.2-6.9s-10.1-5.3-10.1-5.3s-0.2,8.6,5.7,12.1c4.2,2.5,8.7,4.5,13.3,6.2L400.5,277.1z"
		/>
	<path class="st0" d="M413.6,301.6c0,0-1.3-3.3-7.9-6.1c-6.5-2.8-10.6-4.2-10.6-4.2s0.8,8.6,6.9,11.5c4.5,2,9.1,3.6,13.9,4.8
		L413.6,301.6z"/>
	<path class="st0" d="M416.9,330.2c0,0-0.6-3.5-6.4-7.6s-9.4-6.4-9.4-6.4s-1.1,8.5,4.4,12.7c4,2.9,8.2,5.4,12.6,7.6L416.9,330.2z"/>
	<path class="st0" d="M418.2,337.1c0,0-1.1-3.4,2.1-9.7s5.4-10,5.4-10s4.9,7,2,13.2c-2.2,4.4-4.7,8.6-7.6,12.6L418.2,337.1z"/>
	<path class="st0" d="M428,365.5c0,0,0.4-3.5,6-8s9.1-6.9,9.1-6.9s1.6,8.5-3.6,12.9c-3.8,3.1-7.8,5.9-12.1,8.3L428,365.5z"/>
	<path class="st0" d="M426.6,356.7c0,0-0.6-3.5-6.4-7.6s-9.4-6.3-9.4-6.3s-1.1,8.5,4.4,12.7c4,2.9,8.2,5.4,12.6,7.6L426.6,356.7z"/>
	<path class="st0" d="M426.5,375.9c0,0,0.3-3.6-4.3-9s-7.5-8.5-7.5-8.5s-3.2,8,1,13.4c3.1,3.8,6.6,7.4,10.3,10.6L426.5,375.9z"/>
	<path class="st3" d="M398.5,270.3c0.9,3.6,2,7.2,3.2,10.7c3.7,9.7,9.7,15.4,13.2,24.1c3.5,8.8,0,21.5,3.5,32.9s9.2,17.1,9.2,25.1
		c0.1,8-3.1,30.4-3.1,30.4"/>
	<line class="st3" x1="400.9" y1="279.4" x2="394.9" y2="276.2"/>
	<line class="st3" x1="399.9" y1="274.8" x2="401.4" y2="270.4"/>
	<path class="st3" d="M414.6,304.8c0,0-5-2.6-10.2-5.1"/>
	<path class="st3" d="M411.2,298.2c1.5-4.7,3.4-9.2,5.8-13.5"/>
	<path class="st3" d="M417.6,335.2c-3.4-4.2-7.3-8-11.7-11.1"/>
	<path class="st3" d="M419.3,340c0.8-3.4,1.9-6.8,3.2-10c1.9-4.3,2.2-4.8,2.2-4.8"/>
	<path class="st3" d="M427.4,369.3c0,0,4-4.9,6.5-6.7c1.5-1.1,2.9-2.3,4.2-3.7"/>
	<path class="st3" d="M427.7,363.2c-1.6-2.6-3.4-5.1-5.4-7.4c-2-2.1-4.1-4.1-6.4-5.9"/>
	<path class="st3" d="M426,382.3c-0.2-2.7-1.1-5.3-2.7-7.6c-2.5-3.3-5.4-7.6-6.6-9.3"/>
	<path class="st4" d="M408.5,389.6H460l0,0v18c0,1.9-1.6,3.5-3.5,3.5H412c-1.9,0-3.5-1.6-3.5-3.5V389.6L408.5,389.6z"/>
	<path class="st4" d="M459.5,396.3h-51c-2.2,0-4-1.8-4-4l0,0c0-2.2,1.8-4,4-4h51c2.2,0,4,1.8,4,4l0,0
		C463.5,394.5,461.7,396.3,459.5,396.3z"/>
	<line class="st5" x1="410.5" y1="396.5" x2="447.6" y2="396.5"/>
	<line class="st5" x1="451.1" y1="396.5" x2="457.2" y2="396.5"/>
</g>
<g id="freepik--Screens--inject-533">
	<rect x="239.7" y="55.1" class="st6" width="207.6" height="151.2"/>
	<rect x="239.7" y="55.1" class="st0" width="207.6" height="13.3"/>
	<path class="st7" d="M252.2,61.9c0,1.9-1.5,3.4-3.4,3.4s-3.4-1.5-3.4-3.3s1.5-3.4,3.4-3.4l0,0C250.7,58.5,252.2,60,252.2,61.9
		L252.2,61.9z"/>
	<path class="st8" d="M265.9,61.9c0,1.9-1.5,3.4-3.3,3.4c-1.9,0-3.4-1.5-3.4-3.3c0-1.9,1.5-3.4,3.3-3.4l0,0
		C264.4,58.5,265.9,60,265.9,61.9C265.9,61.8,265.9,61.9,265.9,61.9z"/>
	<path class="st9" d="M279.6,61.9c0,1.9-1.5,3.4-3.3,3.4c-1.9,0-3.4-1.5-3.4-3.3c0-1.9,1.5-3.4,3.3-3.4l0,0
		C278.1,58.5,279.6,60,279.6,61.9z"/>
	<rect x="254" y="94.9" class="st8" width="7.1" height="2.6"/>
	<rect x="266.3" y="94.9" class="st8" width="82.9" height="2.6"/>
	<rect x="353.6" y="94.9" class="st0" width="13.5" height="2.6"/>
	<rect x="375.2" y="129.7" class="st8" width="13.5" height="2.6"/>
	<rect x="370.1" y="94.9" class="st7" width="45.6" height="2.6"/>
	<rect x="261.1" y="101.9" class="st8" width="7.1" height="2.6"/>
	<rect x="273.3" y="101.9" class="st7" width="53.6" height="2.6"/>
	<rect x="351.8" y="129.7" class="st7" width="20.3" height="2.6"/>
	<rect x="266.3" y="122.8" class="st7" width="51.2" height="2.6"/>
	<rect x="273.3" y="108.8" class="st0" width="35.9" height="2.6"/>
	<rect x="362.6" y="115.8" class="st7" width="35.9" height="2.6"/>
	<rect x="313.2" y="108.8" class="st7" width="58.6" height="2.6"/>
	<rect x="266.3" y="129.7" class="st0" width="80.8" height="2.6"/>
	<rect x="368.6" y="101.9" class="st0" width="59.3" height="2.6"/>
	<rect x="330.2" y="101.9" class="st8" width="35.4" height="2.6"/>
	<rect x="396.7" y="108.8" class="st8" width="23" height="2.6"/>
	<rect x="261.1" y="108.8" class="st8" width="7.1" height="2.6"/>
	<rect x="254" y="115.8" class="st7" width="7.1" height="2.6"/>
	<rect x="266.3" y="115.8" class="st8" width="42.1" height="2.6"/>
	<rect x="273.3" y="136.7" class="st8" width="42.1" height="2.6"/>
	<rect x="353" y="143.6" class="st0" width="54.2" height="2.6"/>
	<rect x="318.8" y="136.7" class="st0" width="43.4" height="2.6"/>
	<rect x="311.3" y="143.6" class="st8" width="37.9" height="2.6"/>
	<rect x="273.3" y="143.6" class="st7" width="12.2" height="2.6"/>
	<rect x="320.4" y="122.8" class="st8" width="46.7" height="2.6"/>
	<rect x="370.1" y="122.8" class="st0" width="51.2" height="2.6"/>
	<rect x="312.7" y="115.8" class="st0" width="46.6" height="2.6"/>
	<rect x="254" y="122.8" class="st8" width="7.1" height="2.6"/>
	<rect x="254" y="129.7" class="st8" width="7.1" height="2.6"/>
	<rect x="261.1" y="136.7" class="st7" width="7.1" height="2.6"/>
	<rect x="261.1" y="143.6" class="st8" width="7.1" height="2.6"/>
	<rect x="254" y="149.5" class="st8" width="7.1" height="2.6"/>
	<rect x="266.3" y="149.5" class="st8" width="83.5" height="2.6"/>
	<rect x="261.1" y="156.4" class="st8" width="7.1" height="2.6"/>
	<rect x="273.3" y="156.4" class="st7" width="53.6" height="2.6"/>
	<rect x="266.3" y="177.3" class="st7" width="51.2" height="2.6"/>
	<rect x="273.3" y="163.4" class="st0" width="35.9" height="2.6"/>
	<rect x="313.2" y="163.4" class="st7" width="58.6" height="2.6"/>
	<rect x="266.3" y="184.3" class="st0" width="80.8" height="2.6"/>
	<rect x="368.6" y="156.4" class="st0" width="59.3" height="2.6"/>
	<rect x="330.2" y="156.4" class="st8" width="35.4" height="2.6"/>
	<rect x="396.7" y="163.4" class="st8" width="23" height="2.6"/>
	<rect x="261.1" y="163.4" class="st8" width="7.1" height="2.6"/>
	<rect x="254" y="170.4" class="st7" width="7.1" height="2.6"/>
	<rect x="266.3" y="170.4" class="st8" width="42.1" height="2.6"/>
	<rect x="320.4" y="177.3" class="st8" width="46.7" height="2.6"/>
	<rect x="312.7" y="170.4" class="st0" width="46.6" height="2.6"/>
	<rect x="254" y="177.3" class="st8" width="7.1" height="2.6"/>
	<path class="st0" d="M258.4,88.1c0.2,0.2,0.3,0.6,0,0.9l0,0c-0.1,0.1-0.3,0.2-0.4,0.2c-0.2,0-0.3-0.1-0.5-0.2l-2.7-2.8l0,0l0,0
		v-0.1l0,0c0,0,0,0,0-0.1s0,0,0,0l0,0c0,0,0,0,0-0.1s0,0,0,0v-0.1l0,0c0,0,0,0,0-0.1s0,0,0,0v-0.1l0,0c0,0,0-0.1,0.1-0.1l2.7-2.8
		c0.2-0.2,0.6-0.2,0.9,0c0.2,0.2,0.3,0.6,0,0.9l0,0l-2.4,2L258.4,88.1z"/>
	<path class="st0" d="M260.9,88.4l2.4-5.7c0.1-0.3,0.4-0.4,0.7-0.3c0.3,0.1,0.4,0.4,0.3,0.7l-2.4,5.7c-0.1,0.2-0.3,0.3-0.5,0.3
		c-0.1,0-0.1,0-0.2,0C260.9,89,260.8,88.7,260.9,88.4L260.9,88.4z"/>
	<path class="st0" d="M269.1,86.1L269.1,86.1L269.1,86.1l-2.8,2.8c-0.1,0.1-0.3,0.2-0.4,0.2c-0.2,0-0.3-0.1-0.4-0.2
		c-0.2-0.2-0.3-0.6,0-0.9l0,0l2.3-2.3l-2.3-2.3c-0.2-0.2-0.3-0.6,0-0.9l0,0c0.2-0.2,0.6-0.2,0.9,0l2.7,2.8l0.1,0.1l0,0v0.1l0,0v0.1
		l0,0v0.1l0,0l0,0v0.1l0,0v0.1l0,0L269.1,86.1z"/>
	<rect x="32.9" y="124.4" class="st6" width="177.6" height="131.2"/>
	<rect x="32.9" y="124.4" class="st0" width="177.6" height="13.3"/>
	<path class="st7" d="M45.4,131.2c0,1.9-1.5,3.4-3.3,3.4s-3.4-1.5-3.4-3.3s1.5-3.4,3.3-3.4l0,0C43.9,127.8,45.4,129.3,45.4,131.2z"
		/>
	<path class="st8" d="M59.1,131.2c0,1.9-1.5,3.4-3.3,3.4c-1.9,0-3.4-1.5-3.4-3.4s1.5-3.4,3.4-3.4l0,0
		C57.6,127.8,59.1,129.3,59.1,131.2z"/>
	<path class="st9" d="M72.7,131.2c0,1.9-1.5,3.4-3.3,3.4S66,133,66,131.2s1.5-3.4,3.3-3.4l0,0C71.2,127.8,72.7,129.3,72.7,131.2z"/>
	<rect x="47.1" y="164.2" class="st8" width="7.1" height="2.6"/>
	<rect x="59.5" y="164.2" class="st8" width="62.9" height="2.6"/>
	<rect x="126.7" y="164.2" class="st0" width="13.5" height="2.6"/>
	<rect x="168.4" y="199" class="st8" width="13.5" height="2.6"/>
	<rect x="143.2" y="164.2" class="st7" width="45.6" height="2.6"/>
	<rect x="54.3" y="171.2" class="st8" width="7.1" height="2.6"/>
	<rect x="66.4" y="171.2" class="st7" width="53.6" height="2.6"/>
	<rect x="144.9" y="199" class="st7" width="20.3" height="2.6"/>
	<rect x="59.5" y="192.1" class="st7" width="51.2" height="2.6"/>
	<rect x="66.4" y="178.1" class="st0" width="35.9" height="2.6"/>
	<rect x="155.8" y="185.1" class="st7" width="35.9" height="2.6"/>
	<rect x="106.3" y="178.1" class="st7" width="58.6" height="2.6"/>
	<rect x="59.5" y="199" class="st0" width="80.8" height="2.6"/>
	<rect x="123.4" y="171.2" class="st8" width="35.4" height="2.6"/>
	<rect x="169.5" y="178.1" class="st8" width="23.1" height="2.6"/>
	<rect x="54.3" y="178.1" class="st8" width="7.1" height="2.6"/>
	<rect x="47.1" y="185.1" class="st7" width="7.1" height="2.6"/>
	<rect x="59.5" y="185.1" class="st8" width="42.1" height="2.6"/>
	<rect x="66.4" y="206" class="st8" width="42.1" height="2.6"/>
	<rect x="146.1" y="212.9" class="st0" width="39.8" height="2.6"/>
	<rect x="111.9" y="206" class="st0" width="43.4" height="2.6"/>
	<rect x="104.5" y="212.9" class="st8" width="37.9" height="2.6"/>
	<rect x="66.4" y="212.9" class="st7" width="12.2" height="2.6"/>
	<rect x="113.6" y="192.1" class="st8" width="46.7" height="2.6"/>
	<rect x="163.2" y="192.1" class="st0" width="18.7" height="2.6"/>
	<rect x="105.8" y="185.1" class="st0" width="46.6" height="2.6"/>
	<rect x="47.1" y="192.1" class="st8" width="7.1" height="2.6"/>
	<rect x="47.1" y="199" class="st8" width="7.1" height="2.6"/>
	<rect x="54.3" y="206" class="st7" width="7.1" height="2.6"/>
	<rect x="54.3" y="212.9" class="st8" width="7.1" height="2.6"/>
	<rect x="47.1" y="218.8" class="st8" width="7.1" height="2.6"/>
	<rect x="59.5" y="218.8" class="st8" width="83.5" height="2.6"/>
	<rect x="54.3" y="225.7" class="st8" width="7.1" height="2.6"/>
	<rect x="66.4" y="225.7" class="st7" width="53.6" height="2.6"/>
	<rect x="66.4" y="232.7" class="st0" width="35.9" height="2.6"/>
	<rect x="106.3" y="232.7" class="st7" width="58.6" height="2.6"/>
	<rect x="123.4" y="225.7" class="st8" width="35.4" height="2.6"/>
	<rect x="54.3" y="232.7" class="st8" width="7.1" height="2.6"/>
	<path class="st0" d="M51.5,157.4c0.2,0.2,0.3,0.6,0,0.9l0,0c-0.1,0.1-0.3,0.2-0.4,0.2c-0.2,0-0.3-0.1-0.5-0.2l-2.8-2.8
		c0,0,0,0,0-0.1l0,0c0,0,0,0,0-0.1l0,0c0,0,0,0,0-0.1s0,0,0,0v-0.1c0,0,0,0,0-0.1s0,0,0-0.1v0.1l0,0v-0.1l0,0v-0.1l0,0v-0.1l2.8-2.8
		c0.2-0.2,0.6-0.2,0.9,0c0.2,0.2,0.3,0.6,0,0.9l0,0l-2.3,2.3L51.5,157.4z"/>
	<path class="st0" d="M54.1,157.7l2.4-5.7c0.1-0.3,0.4-0.4,0.7-0.3c0.3,0.1,0.4,0.4,0.3,0.7l0,0l-2.4,5.7c-0.1,0.2-0.3,0.3-0.5,0.3
		c-0.1,0-0.1,0-0.2,0C54.1,158.3,53.9,158,54.1,157.7C54,157.7,54.1,157.7,54.1,157.7z"/>
	<path class="st0" d="M62.1,155.4L62.1,155.4L62.1,155.4l-2.8,2.9c-0.1,0.1-0.3,0.2-0.4,0.2c-0.2,0-0.3-0.1-0.4-0.2
		c-0.2-0.2-0.3-0.6,0-0.9l0,0l2.3-2.3l-2.3-2.3c-0.2-0.2-0.3-0.6,0-0.9l0,0c0.2-0.2,0.6-0.2,0.9,0l2.7,2.8c0,0,0,0,0.1,0.1l0,0
		c0,0,0,0.1,0.1,0.1l0,0v0.1l0,0v0.1c0,0,0,0,0,0.1v0.2C62.2,155.2,62.2,155.3,62.1,155.4L62.1,155.4L62.1,155.4z"/>
</g>
<g id="freepik--Device--inject-535">
	<path class="st9" d="M307.3,378.8V351h-83.5v27.8c0,9.1-3.1,17.9-8.9,25l-3.7,4.5h108.6l-3.7-4.5
		C310.5,396.7,307.3,387.9,307.3,378.8z"/>
	<g>
		<g>
			<defs>
				<path id="SVGID_1_" d="M307.3,378.8V351h-83.5v27.8c0,9.1-3.1,17.9-8.9,25l-3.7,4.5h108.6l-3.7-4.5
					C310.5,396.7,307.3,387.9,307.3,378.8z"/>
			</defs>
			<clipPath id="SVGID_2_">
				<use xlink:href="#SVGID_1_"  style="overflow:visible;"/>
			</clipPath>
			<g class="st10">
				<path class="st6" d="M218.7,368.9h93.8c-3.4-5.9-5.1-12.6-5.1-19.4v-27.8h-83.5v27.8C223.8,356.3,222,363,218.7,368.9z"/>
			</g>
		</g>
	</g>
	<path class="st3" d="M307.3,378.8V351h-83.5v27.8c0,9.1-3.1,17.9-8.9,25l-3.7,4.5h108.6l-3.7-4.5
		C310.5,396.7,307.3,387.9,307.3,378.8z"/>
	<path class="st4" d="M106.2,113.3h318.7c4.7,0,8.5,3.8,8.5,8.5v229.5c0,4.7-3.8,8.5-8.5,8.5H106.2c-4.7,0-8.5-3.8-8.5-8.5V121.8
		C97.7,117.1,101.5,113.3,106.2,113.3z"/>
	<path class="st11" d="M97.7,321.4h335.7l0,0v29.8c0,4.7-3.8,8.5-8.5,8.5l0,0H106.2c-4.7,0-8.5-3.8-8.5-8.5l0,0V321.4L97.7,321.4z"
		/>
	<rect x="211.3" y="408.2" class="st11" width="108.6" height="5"/>
	<rect x="114.6" y="128.6" class="st12" width="301.9" height="174.1"/>
</g>
<g id="freepik--Keyboard--inject-535">
	<path class="st11" d="M452.2,443.1c0,0-5-5.5-19.4-10.3s-35.4,1.9-40.6,5.8s-5.5,6.1,1.1,8.2s16.8,4.1,28.3,10.4s19.9,9.3,30.1,3.5
		S456.5,447.3,452.2,443.1z"/>
	<path class="st9" d="M419,451.4c-10.3-5.6-23-5.7-28.1-5.5c0.7,0.3,1.5,0.6,2.3,0.9c6.6,2.1,16.8,4.1,28.3,10.4
		c8,4.4,14.5,7.2,21.2,6.5C427.5,460.4,429.2,457,419,451.4z"/>
	<g>
		<g>
			<defs>
				<path id="SVGID_3_" d="M419,451.4c-10.3-5.6-23-5.7-28.1-5.5c0.7,0.3,1.5,0.6,2.3,0.9c6.6,2.1,16.8,4.1,28.3,10.4
					c8,4.4,14.5,7.2,21.2,6.5C427.5,460.4,429.2,457,419,451.4z"/>
			</defs>
			<clipPath id="SVGID_4_">
				<use xlink:href="#SVGID_3_"  style="overflow:visible;"/>
			</clipPath>
			<g class="st13">
				<path class="st4" d="M419,451.4c-10.3-5.6-23-5.7-28.1-5.5c0.7,0.3,1.5,0.6,2.3,0.9c6.6,2.1,16.8,4.1,28.3,10.4
					c8,4.4,14.5,7.2,21.2,6.5C427.5,460.4,429.2,457,419,451.4z"/>
			</g>
		</g>
	</g>
	<path class="st3" d="M419,451.4c-10.3-5.6-23-5.7-28.1-5.5c0.7,0.3,1.5,0.6,2.3,0.9c6.6,2.1,16.8,4.1,28.3,10.4
		c8,4.4,14.5,7.2,21.2,6.5C427.5,460.4,429.2,457,419,451.4z"/>
	<path class="st14" d="M398.8,473.1h-268c-2.8,0-4.3-0.9-3.3-2l28.5-33.2c0.6-0.7,2.8-1.2,5-1.2h207.8c2.2,0,4.4,0.6,5,1.2
		l28.5,33.1C403.1,472.1,401.7,473.1,398.8,473.1z"/>
	<polygon class="st15" points="267,437.3 254.7,437.3 254.4,441.6 267.1,441.6 	"/>
	<polygon class="st15" points="237.4,437.3 225.1,437.3 223.7,441.6 236.4,441.6 	"/>
	<polygon class="st15" points="281.9,437.3 269.6,437.3 269.8,441.6 282.5,441.6 	"/>
	<polygon class="st15" points="207.7,437.3 195.4,437.3 193,441.6 205.7,441.6 	"/>
	<polygon class="st15" points="222.5,437.3 210.2,437.3 208.3,441.6 221.1,441.6 	"/>
	<polygon class="st15" points="177.6,441.6 190.4,441.6 192.8,437.3 180.5,437.3 	"/>
	<polygon class="st15" points="252.2,437.3 239.9,437.3 239,441.6 251.8,441.6 	"/>
	<polygon class="st15" points="296.7,437.3 284.4,437.3 285.1,441.6 297.8,441.6 	"/>
	<polygon class="st15" points="178,437.3 159.2,437.3 155.6,441.6 175,441.6 	"/>
	<polygon class="st15" points="358.6,437.3 361.9,441.6 375,441.6 371.4,437.3 	"/>
	<polygon class="st15" points="356.1,437.3 343.8,437.3 346.5,441.6 359.2,441.6 	"/>
	<polygon class="st15" points="341.3,437.3 329,437.3 331.2,441.6 343.9,441.6 	"/>
	<polygon class="st15" points="311.6,437.3 299.3,437.3 300.5,441.6 313.2,441.6 	"/>
	<polygon class="st15" points="326.4,437.3 314.1,437.3 315.8,441.6 328.5,441.6 	"/>
	<polygon class="st15" points="228.5,442.1 215.7,442.1 214,446.8 227.2,446.8 	"/>
	<polygon class="st15" points="244,442.1 231.2,442.1 230,446.8 243.2,446.8 	"/>
	<polygon class="st15" points="259.4,442.1 246.6,442.1 245.9,446.8 259.2,446.8 	"/>
	<polygon class="st15" points="197.7,442.1 184.9,442.1 182,446.8 195.3,446.8 	"/>
	<polygon class="st15" points="166,446.8 179.3,446.8 182.2,442.1 169.4,442.1 	"/>
	<polygon class="st15" points="274.8,442.1 262,442.1 261.9,446.8 275.2,446.8 	"/>
	<polygon class="st15" points="213.1,442.1 200.3,442.1 198,446.8 211.2,446.8 	"/>
	<polygon class="st15" points="352,442.1 339.2,442.1 341.8,446.8 355.1,446.8 	"/>
	<polygon class="st15" points="166.8,442.1 155.3,442.1 151.4,446.8 163.3,446.8 	"/>
	<polygon class="st15" points="354.6,442.1 357.8,446.8 379.3,446.8 375.4,442.1 	"/>
	<polygon class="st15" points="336.5,442.1 323.8,442.1 325.9,446.8 339.1,446.8 	"/>
	<polygon class="st15" points="290.2,442.1 277.5,442.1 277.9,446.8 291.2,446.8 	"/>
	<polygon class="st15" points="305.7,442.1 292.9,442.1 293.9,446.8 307.1,446.8 	"/>
	<polygon class="st15" points="321.1,442.1 308.3,442.1 309.9,446.8 323.1,446.8 	"/>
	<polygon class="st15" points="299.9,465.4 212.1,465.4 209.9,471.9 301.4,471.9 	"/>
	<polygon class="st15" points="209,465.4 189.4,465.4 186.2,471.9 206.7,471.9 	"/>
	<polygon class="st15" points="319.1,465.4 303,465.4 304.6,471.9 321.4,471.9 	"/>
	<polygon class="st15" points="149,471.9 164.9,471.9 168.9,465.4 153.7,465.4 	"/>
	<polygon class="st15" points="186.3,465.4 172.1,465.4 168.1,471.9 183,471.9 	"/>
	<polygon class="st15" points="150.6,465.4 135.8,465.4 130.4,471.9 145.8,471.9 	"/>
	<polygon class="st15" points="338.3,465.4 322.2,465.4 324.6,471.9 341.4,471.9 	"/>
	<polygon class="st15" points="379.8,465.4 384.6,471.9 400.5,471.9 395,465.4 	"/>
	<polygon class="st15" points="357.5,465.4 341.4,465.4 344.6,471.9 361.4,471.9 	"/>
	<polygon class="st15" points="376.7,465.4 360.6,465.4 364.6,471.9 381.4,471.9 	"/>
	<polygon class="st15" points="246.2,458.8 231.8,458.8 230.5,464.8 245.4,464.8 	"/>
	<polygon class="st15" points="280.9,458.8 266.5,458.8 266.6,464.8 281.5,464.8 	"/>
	<polygon class="st15" points="228.9,458.8 214.5,458.8 212.5,464.8 227.4,464.8 	"/>
	<polygon class="st15" points="194.2,458.8 179.8,458.8 176.4,464.8 191.3,464.8 	"/>
	<polygon class="st15" points="158.4,464.8 173.3,464.8 176.9,458.8 162.5,458.8 	"/>
	<polygon class="st15" points="211.5,458.8 197.2,458.8 194.4,464.8 209.4,464.8 	"/>
	<polygon class="st15" points="263.5,458.8 249.2,458.8 248.5,464.8 263.5,464.8 	"/>
	<polygon class="st15" points="159.5,458.8 141.3,458.8 136.3,464.8 155.3,464.8 	"/>
	<polygon class="st15" points="350.2,458.8 335.8,458.8 338.7,464.8 353.6,464.8 	"/>
	<polygon class="st15" points="353.2,458.8 356.8,464.8 394.5,464.8 389.5,458.8 	"/>
	<polygon class="st15" points="298.2,458.8 283.8,458.8 284.6,464.8 299.5,464.8 	"/>
	<polygon class="st15" points="315.5,458.8 301.2,458.8 302.6,464.8 317.6,464.8 	"/>
	<polygon class="st15" points="332.9,458.8 318.5,458.8 320.7,464.8 335.6,464.8 	"/>
	<polygon class="st15" points="255.3,452.8 241.5,452.8 240.6,458.3 254.9,458.3 	"/>
	<polygon class="st15" points="272,452.8 258.1,452.8 257.9,458.3 272.2,458.3 	"/>
	<polygon class="st15" points="238.6,452.8 224.8,452.8 223.3,458.3 237.6,458.3 	"/>
	<polygon class="st15" points="222,452.8 208.1,452.8 205.9,458.3 220.3,458.3 	"/>
	<polygon class="st15" points="205.3,452.8 191.5,452.8 188.6,458.3 203,458.3 	"/>
	<polygon class="st15" points="171.3,458.3 185.7,458.3 188.6,452.8 174.8,452.8 	"/>
	<polygon class="st15" points="288.6,452.8 274.8,452.8 275.2,458.3 289.6,458.3 	"/>
	<polygon class="st15" points="171.9,452.8 146.3,452.8 141.7,458.3 168.4,458.3 	"/>
	<polygon class="st15" points="372,452.8 358.2,452.8 361.8,458.3 376.1,458.3 	"/>
	<polygon class="st15" points="305.3,452.8 291.5,452.8 292.5,458.3 306.9,458.3 	"/>
	<polygon class="st15" points="355.3,452.8 341.5,452.8 344.5,458.3 358.8,458.3 	"/>
	<polygon class="st15" points="322,452.8 308.2,452.8 309.8,458.3 324.2,458.3 	"/>
	<polygon class="st15" points="338.6,452.8 324.8,452.8 327.1,458.3 341.5,458.3 	"/>
	<polygon class="st15" points="236.2,452.3 249.7,452.3 250.3,447.2 237.3,447.2 	"/>
	<polygon class="st15" points="219.9,452.3 233.4,452.3 234.5,447.2 221.5,447.2 	"/>
	<polygon class="st15" points="252.6,452.3 266.1,452.3 266,447.2 253,447.2 	"/>
	<polygon class="st15" points="170.9,452.3 184.4,452.3 187.3,447.2 174.2,447.2 	"/>
	<polygon class="st15" points="187.2,452.3 200.7,452.3 203,447.2 190,447.2 	"/>
	<polygon class="st15" points="268.9,452.3 282.4,452.3 281.8,447.2 268.8,447.2 	"/>
	<polygon class="st15" points="203.6,452.3 217.1,452.3 218.8,447.2 205.8,447.2 	"/>
	<path class="st15" d="M379.7,447.2H366l3.8,5.1h3.3c0.4,0,0.9,0.1,1.2,0.4l4.4,5.7h10.1L379.7,447.2z"/>
	<polygon class="st15" points="334.2,452.3 347.8,452.3 344.8,447.2 331.8,447.2 	"/>
	<polygon class="st15" points="350.6,452.3 366.9,452.3 363.3,447.2 347.5,447.2 	"/>
	<polygon class="st15" points="146.8,452.3 168.1,452.3 171.5,447.2 151,447.2 	"/>
	<polygon class="st15" points="285.2,452.3 298.7,452.3 297.5,447.2 284.5,447.2 	"/>
	<polygon class="st15" points="317.9,452.3 331.4,452.3 329,447.2 316,447.2 	"/>
	<polygon class="st15" points="301.6,452.3 315.1,452.3 313.3,447.2 300.3,447.2 	"/>
</g>
<g id="freepik--Device--inject-200">
	<g class="st16">
		<rect x="114.3" y="129.7" class="st9" width="301.9" height="174.1"/>
	</g>
	<g>
		<rect x="116.2" y="135.3" class="st17" width="287.8" height="139.3"/>
	</g>
	<g class="st18">
		<rect x="114.2" y="128.7" class="st17" width="301.9" height="174.1"/>
	</g>
	<g class="st18">
		<rect x="114.6" y="128.1" class="st9" width="301.2" height="174.9"/>
	</g>
	<g class="st19">
		<polygon class="st9" points="322.5,284 346.5,284 310.8,144.7 286.8,144.7 		"/>
		<polygon class="st9" points="307.3,284 313.4,284 277.7,144.7 271.5,144.7 		"/>
		<polygon class="st9" points="217.6,284 221.7,284 185.9,144.7 181.9,144.7 		"/>
		<polygon class="st9" points="202.4,284 208.5,284 172.8,144.7 166.7,144.7 		"/>
	</g>
	<path class="st17" d="M169.4,189.1h-11.9c-1,0-1.8-0.6-1.9-1.4l0,0c-0.1-0.7,0.5-1.4,1.4-1.4c0.1,0,0.1,0,0.2,0h11.9
		c1,0,1.8,0.6,1.9,1.4l0,0c0.1,0.7-0.5,1.3-1.4,1.4C169.5,189.1,169.5,189.1,169.4,189.1z"/>
	<path class="st17" d="M198.7,177.6h-8.8c-1,0-1.8-0.6-1.9-1.4l0,0c-0.1-0.7,0.5-1.3,1.4-1.4c0.1,0,0.1,0,0.2,0h8.8
		c1,0,1.8,0.6,1.9,1.4l0,0c0.1,0.7-0.5,1.3-1.4,1.4C198.9,177.6,198.8,177.6,198.7,177.6z"/>
	<path class="st17" d="M295.6,189.1h-11.9c-1,0-1.8-0.6-1.9-1.4l0,0c-0.1-0.7,0.5-1.3,1.4-1.4c0.1,0,0.1,0,0.2,0h11.9
		c1,0,1.8,0.6,1.9,1.4l0,0c0.1,0.7-0.5,1.4-1.4,1.4C295.7,189.1,295.7,189.1,295.6,189.1z"/>
	<path class="st6" d="M271.8,189.1h-91c-1,0-1.8-0.6-1.9-1.4l0,0c-0.1-0.7,0.5-1.3,1.4-1.4c0.1,0,0.1,0,0.2,0h90.9
		c1,0,1.8,0.6,1.9,1.4l0,0c0.1,0.7-0.5,1.3-1.4,1.4C271.9,189.1,271.9,189.1,271.8,189.1z"/>
	<path class="st17" d="M170.4,198.9h-11.9c-1,0-1.8-0.6-1.9-1.4l0,0c-0.1-0.7,0.5-1.3,1.4-1.4c0.1,0,0.1,0,0.2,0h11.9
		c1,0,1.8,0.6,1.9,1.4l0,0c0.1,0.7-0.5,1.3-1.4,1.4C170.6,198.9,170.5,198.9,170.4,198.9z"/>
	<path class="st17" d="M206.5,198.9h-24.6c-1,0-1.8-0.6-1.9-1.4l0,0c-0.1-0.7,0.5-1.4,1.4-1.4c0.1,0,0.1,0,0.2,0h24.6
		c1,0,1.8,0.6,1.9,1.4l0,0c0.1,0.7-0.5,1.3-1.4,1.4C206.6,198.9,206.6,198.9,206.5,198.9z"/>
	<path class="st17" d="M250.6,198.9h-36.4c-1,0-1.8-0.6-1.9-1.4l0,0c-0.1-0.7,0.5-1.3,1.4-1.4c0.1,0,0.1,0,0.2,0h36.4
		c1,0,1.8,0.6,1.9,1.4l0,0c0.1,0.7-0.5,1.3-1.4,1.4C250.7,198.9,250.7,198.9,250.6,198.9z"/>
	<path class="st17" d="M171.5,208.8h-11.9c-1,0-1.8-0.6-1.9-1.4l0,0c-0.1-0.7,0.5-1.3,1.4-1.4c0.1,0,0.1,0,0.2,0h11.9
		c1,0,1.8,0.6,1.9,1.4l0,0c0.1,0.7-0.5,1.3-1.4,1.4C171.6,208.8,171.5,208.8,171.5,208.8z"/>
	<path class="st6" d="M231.7,208.8H183c-1,0-1.8-0.6-1.9-1.4l0,0c-0.1-0.7,0.5-1.3,1.4-1.4c0.1,0,0.1,0,0.2,0h48.7
		c1,0,1.8,0.6,1.9,1.4l0,0c0.1,0.7-0.5,1.3-1.4,1.4C231.9,208.8,231.8,208.8,231.7,208.8z"/>
	<path class="st17" d="M172.5,218.7h-11.9c-1,0-1.8-0.6-1.9-1.4l0,0c-0.1-0.7,0.5-1.3,1.4-1.4c0.1,0,0.1,0,0.2,0h11.9
		c1,0,1.8,0.6,1.9,1.4l0,0c0.1,0.7-0.5,1.3-1.4,1.4C172.6,218.6,172.6,218.7,172.5,218.7z"/>
	<path class="st6" d="M204.5,218.7H184c-1,0-1.8-0.6-1.9-1.4l0,0c-0.1-0.7,0.5-1.3,1.4-1.4c0.1,0,0.1,0,0.2,0h20.5
		c1,0,1.8,0.6,1.9,1.4l0,0c0.1,0.7-0.5,1.3-1.4,1.4C204.7,218.6,204.6,218.7,204.5,218.7z"/>
	<path class="st17" d="M251.5,236.8H231c-1,0-1.8-0.6-1.9-1.4l0,0c-0.1-0.7,0.5-1.3,1.4-1.4c0.1,0,0.1,0,0.2,0h20.5
		c1,0,1.8,0.6,1.9,1.4l0,0c0.1,0.7-0.5,1.3-1.4,1.4C251.7,236.8,251.6,236.8,251.5,236.8z"/>
	<path class="st6" d="M357.8,236.8H262c-1,0-1.8-0.6-1.9-1.4l0,0c-0.1-0.7,0.5-1.3,1.4-1.4c0.1,0,0.1,0,0.2,0h95.8
		c1,0,1.8,0.6,1.9,1.4l0,0c0.1,0.7-0.5,1.3-1.4,1.4C358,236.8,357.9,236.8,357.8,236.8z"/>
	<path class="st17" d="M322.8,246.7H224c-1,0-1.8-0.6-1.9-1.4l0,0c-0.1-0.7,0.5-1.3,1.4-1.4c0.1,0,0.1,0,0.2,0h98.8
		c1,0,1.8,0.6,1.9,1.4l0,0c0.1,0.7-0.5,1.4-1.4,1.4C322.9,246.6,322.8,246.7,322.8,246.7z"/>
	<path class="st17" d="M358.9,246.7h-23.8c-1,0-1.8-0.6-1.9-1.4l0,0c-0.1-0.7,0.5-1.3,1.4-1.4c0.1,0,0.1,0,0.2,0h23.8
		c1,0,1.8,0.6,1.9,1.4l0,0c0.1,0.7-0.5,1.3-1.4,1.4C359,246.6,358.9,246.7,358.9,246.7z"/>
	<path class="st17" d="M305.2,256.5h-10c-1,0-1.8-0.6-1.9-1.4l0,0c-0.1-0.7,0.5-1.3,1.4-1.4c0.1,0,0.1,0,0.2,0h10
		c1,0,1.8,0.6,1.9,1.4l0,0c0.1,0.7-0.5,1.3-1.4,1.4C305.3,256.5,305.3,256.5,305.2,256.5z"/>
	<path class="st6" d="M359.9,256.5H316c-1,0-1.8-0.6-1.9-1.4l0,0c-0.1-0.7,0.5-1.3,1.4-1.4c0.1,0,0.1,0,0.2,0h43.9
		c1,0,1.8,0.6,1.9,1.4l0,0c0.1,0.7-0.5,1.3-1.4,1.4C360,256.5,360,256.5,359.9,256.5z"/>
	<path class="st6" d="M235.3,266.4h-29.2c-1,0-1.8-0.6-1.9-1.4l0,0c-0.1-0.7,0.5-1.3,1.4-1.4c0.1,0,0.1,0,0.2,0H235
		c1,0,1.8,0.6,1.9,1.4l0,0c0.1,0.7-0.5,1.3-1.4,1.4C235.4,266.4,235.4,266.4,235.3,266.4z"/>
	<path class="st6" d="M360.9,266.4h-86.7c-1,0-1.8-0.6-1.9-1.4l0,0c-0.1-0.7,0.5-1.3,1.4-1.4c0.1,0,0.1,0,0.2,0h86.7
		c1,0,1.8,0.6,1.9,1.4l0,0c0.1,0.7-0.5,1.4-1.4,1.4C361.1,266.4,361,266.4,360.9,266.4z"/>
	<path class="st6" d="M268.6,218.7h-52.3c-1,0-1.8-0.6-1.9-1.4l0,0c-0.1-0.7,0.5-1.3,1.4-1.4c0.1,0,0.1,0,0.2,0h52.3
		c1,0,1.8,0.6,1.9,1.4l0,0c0.1,0.7-0.5,1.4-1.4,1.4C268.7,218.6,268.7,218.7,268.6,218.7z"/>
	<path class="st6" d="M181.6,228.5h-19.9c-1,0-1.8-0.6-1.9-1.4l0,0c-0.1-0.7,0.5-1.3,1.4-1.4c0.1,0,0.1,0,0.2,0h19.9
		c1,0,1.8,0.6,1.9,1.4l0,0c0.1,0.7-0.5,1.4-1.4,1.4C181.7,228.5,181.7,228.5,181.6,228.5z"/>
	<path class="st6" d="M200.8,228.5h-10.6c-1,0-1.8-0.6-1.9-1.4l0,0c-0.1-0.7,0.5-1.3,1.4-1.4c0.1,0,0.1,0,0.2,0h10.6
		c1,0,1.8,0.6,1.9,1.4l0,0c0.1,0.7-0.5,1.4-1.4,1.4C201,228.5,200.9,228.5,200.8,228.5z"/>
	<path class="st6" d="M163,170.6l-5.3,1.6l5.6,1.6c0.4,0.1,0.7,0.4,0.8,0.8l0,0c0.1,0.4-0.3,0.8-0.9,0.9c-0.2,0-0.3,0-0.5-0.1
		l-6.5-2c-0.6-0.2-1.1-0.7-1.1-1.2V172c-0.1-0.5,0.3-1,0.9-1.2l6.1-2c0.6-0.2,1.3,0.1,1.5,0.6c0,0.1,0.1,0.2,0.1,0.2l0,0
		C163.7,170.1,163.5,170.5,163,170.6z"/>
	<path class="st6" d="M170.6,164.7L170.6,164.7c0.7,0,1.3,0.5,1.3,1.1c0,0.1,0,0.1,0,0.2l-3.9,12.4c-0.1,0.4-0.6,0.7-1.1,0.7l0,0
		c-0.7,0-1.3-0.5-1.3-1.1c0-0.1,0-0.1,0-0.2l3.9-12.4C169.6,165,170.1,164.7,170.6,164.7z"/>
	<path class="st6" d="M182.1,172.1v0.2c0.1,0.5-0.3,1-0.9,1.2l-6.1,2c-0.6,0.2-1.3-0.1-1.5-0.6c0-0.1-0.1-0.2-0.1-0.2l0,0
		c0-0.4,0.2-0.7,0.6-0.8l5.3-1.6l-5.6-1.6c-0.4-0.1-0.7-0.5-0.8-0.8l0,0c-0.1-0.4,0.3-0.8,0.9-0.9c0.2,0,0.3,0,0.5,0.1l6.5,2
		C181.6,171.1,182.1,171.6,182.1,172.1z"/>
</g>
<g id="freepik--Bugs--inject-200">
	<path class="st6" d="M397.7,253.4c0-0.2-0.7-0.6-1.7-0.7c-0.5-0.1-1-0.1-1.5-0.1c-0.2-0.5-0.4-0.9-0.7-1.3
		c-0.6-0.8-1.2-1.3-1.4-1.2s0.1,0.9,0.7,1.7c0.3,0.5,0.7,0.9,1.2,1.2s1,0.4,1.5,0.5C396.8,253.6,397.6,253.6,397.7,253.4z"/>
	<path class="st6" d="M392.6,255.9c0.2-0.5,0.3-1.1,0.3-1.7c-0.1-0.5-0.2-1.1-0.5-1.5c-0.4-0.9-0.9-1.5-1.1-1.4s0,0.9,0.4,1.8
		c0.2,0.5,0.5,0.9,0.8,1.3c-0.3,0.4-0.5,0.8-0.7,1.3c-0.3,0.9-0.4,1.7-0.2,1.8S392.3,256.8,392.6,255.9z"/>
	<path class="st6" d="M398.8,248.9c-0.1-0.2-0.9,0-1.8,0.4c-0.5,0.2-0.9,0.5-1.3,0.8c-0.4-0.3-0.8-0.5-1.3-0.7
		c-0.9-0.3-1.7-0.4-1.8-0.2s0.6,0.7,1.5,1c0.5,0.2,1.1,0.3,1.7,0.3c0.5,0,1.1-0.2,1.5-0.5C398.3,249.6,398.9,249.1,398.8,248.9z"/>
	<path class="st6" d="M382.5,238.2c0.2,0,0.6,0.7,0.7,1.7c0.1,0.5,0.1,1,0,1.5c0.5,0.2,0.9,0.4,1.3,0.7c0.8,0.6,1.3,1.2,1.2,1.4
		s-0.9-0.1-1.7-0.7c-0.5-0.3-0.9-0.7-1.2-1.2c-0.3-0.5-0.4-1-0.5-1.5C382.2,239,382.3,238.2,382.5,238.2z"/>
	<path class="st6" d="M380,243.2c0.5-0.2,1.1-0.3,1.7-0.3c0.5,0.1,1.1,0.2,1.5,0.5c0.9,0.4,1.5,0.9,1.4,1.1s-0.9,0-1.8-0.4
		c-0.5-0.2-0.9-0.5-1.3-0.8c-0.4,0.3-0.8,0.5-1.3,0.7c-0.9,0.3-1.7,0.4-1.8,0.2S379.1,243.6,380,243.2z"/>
	<path class="st6" d="M387,237.1c0.2,0.1,0,0.9-0.4,1.8c-0.2,0.5-0.5,0.9-0.8,1.3c0.3,0.4,0.5,0.8,0.7,1.3c0.3,0.9,0.4,1.7,0.2,1.8
		s-0.7-0.6-1-1.5c-0.2-0.5-0.3-1.1-0.3-1.7c0.1-0.5,0.2-1.1,0.5-1.5C386.2,237.6,386.8,237,387,237.1z"/>
	<path class="st17" d="M392,242.5c-0.7,0-1.3,0.6-1.3,1.3s0.6,1.3,1.3,1.3c0.7,0,1.3-0.6,1.3-1.3l0,0H392V242.5z"/>
	<path class="st20" d="M392,242.5c-0.7,0-1.3,0.6-1.3,1.3s0.6,1.3,1.3,1.3c0.7,0,1.3-0.6,1.3-1.3l0,0H392V242.5z"/>
	<path class="st17" d="M384.4,242.2c-0.9,0.5-1.8,1.1-2.5,1.8c-3.2,3.2-3.6,8-0.9,10.7s7.5,2.3,10.7-0.9c0.7-0.7,1.4-1.6,1.8-2.5
		L384.4,242.2z"/>
	<path class="st16" d="M384.4,242.2c-0.9,0.5-1.8,1.1-2.5,1.8c-3.2,3.2-3.6,8-0.9,10.7s7.5,2.3,10.7-0.9c0.7-0.7,1.4-1.6,1.8-2.5
		L384.4,242.2z"/>
	<path class="st17" d="M385.3,243.1l7.2,7.2c1.6-2.4,0.8-5.7-1.6-7.2C389.3,242,387.1,242,385.3,243.1z"/>
	<path class="st21" d="M385.3,243.1l7.2,7.2c1.6-2.4,0.8-5.7-1.6-7.2C389.3,242,387.1,242,385.3,243.1z"/>
	<path class="st20" d="M384.4,242.2c-0.9,0.5-1.8,1.1-2.5,1.8c-3.2,3.2-3.6,8-0.9,10.7l8-8L384.4,242.2z"/>
	<path class="st6" d="M388.5,236.4c0.8,0.3,1.5,0.8,2.1,1.4c1.5,1.6,1.2,3.5,0,5.1c-0.1,0.1,0.1,0.3,0.1,0.2
		c1.2-1.5,1.7-3.3,0.5-4.9c-0.7-0.9-1.6-1.5-2.6-1.9C388.4,236.1,388.4,236.3,388.5,236.4L388.5,236.4z"/>
	<path class="st6" d="M399.5,247.2c-0.4-1-1.1-1.9-1.9-2.6c-1.6-1.2-3.4-0.7-4.9,0.5c-0.1,0.1,0,0.2,0.1,0.2c1.6-1.3,3.5-1.6,5.1,0
		c0.6,0.6,1.1,1.3,1.4,2.1C399.3,247.4,399.6,247.3,399.5,247.2L399.5,247.2z"/>
	<path class="st17" d="M385.5,246.9c-0.5,0.5-1.3,0.5-1.8,0s-0.5-1.3,0-1.8s1.3-0.5,1.8,0C386,245.5,386,246.3,385.5,246.9
		L385.5,246.9z"/>
	<path class="st17" d="M390.7,252c-0.5,0.5-1.3,0.5-1.8,0s-0.5-1.3,0-1.8s1.3-0.5,1.8,0S391.2,251.5,390.7,252L390.7,252z"/>
	<path class="st17" d="M382.7,250.9c-0.5,0.5-1.3,0.5-1.8,0s-0.5-1.3,0-1.8s1.3-0.5,1.8,0C383.2,249.6,383.2,250.4,382.7,250.9
		L382.7,250.9z"/>
	<circle class="st17" cx="385.7" cy="253.9" r="1.3"/>
	<g class="st22">
		<path class="st9" d="M385.5,246.9c-0.5,0.5-1.3,0.5-1.8,0s-0.5-1.3,0-1.8s1.3-0.5,1.8,0C386,245.5,386,246.3,385.5,246.9
			L385.5,246.9z"/>
		<path class="st9" d="M390.7,252c-0.5,0.5-1.3,0.5-1.8,0s-0.5-1.3,0-1.8s1.3-0.5,1.8,0S391.2,251.5,390.7,252L390.7,252z"/>
		<path class="st9" d="M382.7,250.9c-0.5,0.5-1.3,0.5-1.8,0s-0.5-1.3,0-1.8s1.3-0.5,1.8,0C383.2,249.6,383.2,250.4,382.7,250.9
			L382.7,250.9z"/>
		<circle class="st9" cx="385.7" cy="253.9" r="1.3"/>
	</g>
	<path class="st6" d="M317,164c0-0.2-0.7-0.6-1.7-0.7c-0.5-0.1-1-0.1-1.5-0.1c-0.2-0.5-0.4-0.9-0.7-1.3c-0.6-0.8-1.2-1.3-1.4-1.2
		s0.1,0.9,0.7,1.7c0.3,0.5,0.7,0.9,1.3,1.2c0.5,0.3,1,0.4,1.5,0.5C316.1,164.3,316.9,164.3,317,164z"/>
	<path class="st6" d="M311.9,166.5c0.2-0.5,0.3-1.1,0.3-1.7c0-0.5-0.2-1.1-0.5-1.5c-0.4-0.9-0.9-1.5-1.1-1.4s0,0.9,0.4,1.8
		c0.2,0.5,0.5,0.9,0.8,1.3c-0.3,0.4-0.5,0.8-0.7,1.3c-0.3,0.9-0.4,1.7-0.2,1.8S311.6,167.4,311.9,166.5z"/>
	<path class="st6" d="M318.1,159.6c-0.1-0.2-0.9-0.1-1.8,0.4c-0.5,0.2-0.9,0.5-1.3,0.8c-0.4-0.3-0.8-0.5-1.3-0.7
		c-0.9-0.3-1.7-0.4-1.8-0.2s0.6,0.7,1.5,1c0.5,0.2,1.1,0.3,1.7,0.3c0.5-0.1,1.1-0.2,1.5-0.5C317.6,160.3,318.2,159.8,318.1,159.6z"
		/>
	<path class="st6" d="M301.8,148.8c0.2,0,0.6,0.7,0.7,1.7c0.1,0.5,0.1,1,0.1,1.5c0.5,0.2,0.9,0.4,1.3,0.7c0.8,0.6,1.3,1.2,1.2,1.4
		s-0.9-0.1-1.7-0.7c-0.5-0.3-0.9-0.7-1.2-1.2c-0.3-0.5-0.4-1-0.5-1.5C301.5,149.7,301.6,148.9,301.8,148.8z"/>
	<path class="st6" d="M299.3,153.9c0.5-0.2,1.1-0.3,1.7-0.3c0.5,0.1,1.1,0.2,1.5,0.5c0.9,0.4,1.5,0.9,1.4,1.1s-0.9,0.1-1.8-0.4
		c-0.5-0.2-0.9-0.5-1.3-0.8c-0.4,0.3-0.8,0.5-1.3,0.7c-0.9,0.3-1.7,0.4-1.8,0.2S298.4,154.2,299.3,153.9z"/>
	<path class="st6" d="M306.3,147.7c0.2,0.1,0.1,0.9-0.4,1.8c-0.2,0.5-0.5,0.9-0.8,1.3c0.3,0.4,0.5,0.8,0.7,1.3
		c0.3,0.9,0.4,1.7,0.2,1.8s-0.7-0.6-1-1.5c-0.3-0.5-0.4-1.1-0.3-1.7c0.1-0.5,0.2-1.1,0.5-1.5C305.6,148.3,306.1,147.6,306.3,147.7z"
		/>
	<path class="st17" d="M311.3,153.1c-0.7,0-1.3,0.6-1.3,1.3s0.6,1.3,1.3,1.3c0.7,0,1.3-0.6,1.3-1.3l0,0h-1.3V153.1z"/>
	<path class="st20" d="M311.3,153.1c-0.7,0-1.3,0.6-1.3,1.3s0.6,1.3,1.3,1.3c0.7,0,1.3-0.6,1.3-1.3l0,0h-1.3V153.1z"/>
	<path class="st17" d="M303.8,152.9c-0.9,0.5-1.8,1.1-2.5,1.8c-3.2,3.2-3.6,8-0.9,10.7s7.5,2.3,10.7-0.9c0.7-0.7,1.4-1.6,1.8-2.5
		L303.8,152.9z"/>
	<path class="st16" d="M303.8,152.9c-0.9,0.5-1.8,1.1-2.5,1.8c-3.2,3.2-3.6,8-0.9,10.7s7.5,2.3,10.7-0.9c0.7-0.7,1.4-1.6,1.8-2.5
		L303.8,152.9z"/>
	<path class="st17" d="M304.7,153.8l7.2,7.2c1.6-2.4,0.8-5.7-1.6-7.2C308.6,152.7,306.4,152.7,304.7,153.8z"/>
	<path class="st21" d="M304.7,153.8l7.2,7.2c1.6-2.4,0.8-5.7-1.6-7.2C308.6,152.7,306.4,152.7,304.7,153.8z"/>
	<path class="st20" d="M303.8,152.9c-0.9,0.5-1.8,1.1-2.5,1.8c-3.2,3.2-3.6,8-0.9,10.7l8-8L303.8,152.9z"/>
	<path class="st6" d="M307.8,147.1c0.8,0.3,1.5,0.8,2.1,1.4c1.5,1.6,1.2,3.5,0,5.1c-0.1,0.1,0.1,0.3,0.2,0.1
		c1.2-1.5,1.7-3.3,0.5-4.9c-0.7-0.9-1.6-1.5-2.6-1.9C307.8,146.8,307.7,147,307.8,147.1L307.8,147.1z"/>
	<path class="st6" d="M318.8,157.8c-0.4-1-1.1-1.9-1.9-2.6c-1.6-1.2-3.4-0.7-4.9,0.5c-0.1,0.1,0,0.2,0.2,0.2c1.6-1.3,3.5-1.6,5.1,0
		c0.6,0.6,1.1,1.3,1.4,2.1C318.6,158,318.9,158,318.8,157.8L318.8,157.8z"/>
	<path class="st17" d="M304.8,157.5c-0.5,0.5-1.3,0.5-1.8,0s-0.5-1.3,0-1.8s1.3-0.5,1.8,0S305.3,157,304.8,157.5z"/>
	<circle class="st17" cx="309.1" cy="161.8" r="1.3"/>
	<path class="st17" d="M302,161.6c-0.5,0.5-1.4,0.4-1.8-0.1s-0.4-1.2,0-1.7c0.5-0.5,1.3-0.6,1.8-0.1s0.6,1.3,0.1,1.8
		C302.1,161.6,302,161.6,302,161.6z"/>
	<path class="st17" d="M306,165.5c-0.5,0.5-1.3,0.6-1.8,0.1s-0.6-1.3-0.1-1.8l0.1-0.1c0.5-0.5,1.4-0.4,1.8,0.1S306.4,165,306,165.5z
		"/>
	<g class="st22">
		<path class="st9" d="M304.8,157.5c-0.5,0.5-1.3,0.5-1.8,0s-0.5-1.3,0-1.8s1.3-0.5,1.8,0S305.3,157,304.8,157.5z"/>
		<circle class="st9" cx="309.1" cy="161.8" r="1.3"/>
		<path class="st9" d="M302,161.6c-0.5,0.5-1.4,0.4-1.8-0.1s-0.4-1.2,0-1.7c0.5-0.5,1.3-0.6,1.8-0.1s0.6,1.3,0.1,1.8
			C302.1,161.6,302,161.6,302,161.6z"/>
		<path class="st9" d="M306,165.5c-0.5,0.5-1.3,0.6-1.8,0.1s-0.6-1.3-0.1-1.8l0.1-0.1c0.5-0.5,1.4-0.4,1.8,0.1S306.4,165,306,165.5z
			"/>
	</g>
	<path class="st6" d="M214.7,269.8c-0.2,0-0.6,0.7-0.7,1.7c-0.1,0.5-0.1,1-0.1,1.5c-0.5,0.2-0.9,0.4-1.3,0.7
		c-0.8,0.6-1.3,1.2-1.2,1.4s0.9-0.1,1.7-0.7c0.5-0.3,0.9-0.7,1.2-1.2s0.4-1,0.5-1.5C215,270.6,215,269.8,214.7,269.8z"/>
	<path class="st6" d="M217.2,274.8c-0.5-0.2-1.1-0.3-1.7-0.3c-0.5,0.1-1.1,0.2-1.5,0.5c-0.9,0.4-1.5,0.9-1.4,1.1s0.9,0,1.8-0.4
		c0.5-0.2,0.9-0.5,1.3-0.8c0.4,0.3,0.8,0.5,1.3,0.7c0.9,0.3,1.7,0.4,1.8,0.2S218.2,275.2,217.2,274.8z"/>
	<path class="st6" d="M210.3,268.6c-0.2,0.1-0.1,0.9,0.4,1.8c0.2,0.5,0.5,0.9,0.8,1.3c-0.3,0.4-0.5,0.8-0.7,1.3
		c-0.3,0.9-0.4,1.7-0.2,1.8s0.7-0.6,1-1.5c0.2-0.5,0.3-1.1,0.3-1.7c-0.1-0.5-0.2-1-0.4-1.5C211,269.2,210.5,268.6,210.3,268.6z"/>
	<path class="st6" d="M199.6,284.9c0-0.2,0.7-0.6,1.7-0.7c0.5-0.1,1-0.1,1.5-0.1c0.2-0.5,0.4-0.9,0.7-1.3c0.6-0.8,1.2-1.3,1.4-1.2
		s-0.1,0.9-0.7,1.7c-0.3,0.5-0.7,0.9-1.2,1.2c-0.5,0.3-1,0.4-1.5,0.5C200.4,285.2,199.6,285.2,199.6,284.9z"/>
	<path class="st6" d="M204.6,287.4c-0.2-0.5-0.3-1.1-0.3-1.7c0.1-0.5,0.2-1.1,0.4-1.5c0.4-0.9,0.9-1.5,1.1-1.4s0,0.9-0.4,1.8
		c-0.2,0.5-0.5,0.9-0.8,1.3c0.3,0.4,0.5,0.8,0.7,1.3c0.3,0.9,0.4,1.7,0.2,1.8S205,288.4,204.6,287.4z"/>
	<path class="st6" d="M198.5,280.5c0.1-0.2,0.9,0,1.8,0.4c0.5,0.2,0.9,0.5,1.3,0.8c0.4-0.3,0.8-0.5,1.3-0.7c0.9-0.3,1.7-0.4,1.8-0.2
		s-0.6,0.7-1.5,1c-0.5,0.2-1.1,0.3-1.7,0.3c-0.5-0.1-1.1-0.2-1.5-0.5C199,281.2,198.4,280.7,198.5,280.5z"/>
	<path class="st17" d="M203.8,275.5c0,0.7,0.6,1.3,1.3,1.3s1.3-0.6,1.3-1.3c0-0.7-0.6-1.3-1.3-1.3l0,0v1.3H203.8z"/>
	<path class="st20" d="M203.8,275.5c0,0.7,0.6,1.3,1.3,1.3s1.3-0.6,1.3-1.3c0-0.7-0.6-1.3-1.3-1.3l0,0v1.3H203.8z"/>
	<path class="st17" d="M203.6,283c0.5,0.9,1.1,1.8,1.8,2.5c3.2,3.2,8,3.6,10.7,0.9s2.3-7.5-0.9-10.7c-0.7-0.7-1.6-1.4-2.5-1.8
		L203.6,283z"/>
	<path class="st16" d="M203.6,283c0.5,0.9,1.1,1.8,1.8,2.5c3.2,3.2,8,3.6,10.7,0.9s2.3-7.5-0.9-10.7c-0.7-0.7-1.6-1.4-2.5-1.8
		L203.6,283z"/>
	<path class="st17" d="M204.5,282.1l7.2-7.2c-2.4-1.5-5.7-0.8-7.2,1.6C203.4,278.2,203.4,280.4,204.5,282.1z"/>
	<path class="st21" d="M204.5,282.1l7.2-7.2c-2.4-1.5-5.7-0.8-7.2,1.6C203.4,278.2,203.4,280.4,204.5,282.1z"/>
	<path class="st20" d="M203.6,283c0.5,0.9,1.1,1.8,1.8,2.5c3.2,3.2,8,3.6,10.7,0.9l-8-8L203.6,283z"/>
	<path class="st6" d="M197.8,279c0.3-0.8,0.8-1.5,1.4-2.1c1.6-1.5,3.4-1.2,5.1,0c0.1,0.1,0.3-0.1,0.2-0.1c-1.5-1.2-3.3-1.7-4.9-0.5
		c-0.9,0.7-1.5,1.6-1.9,2.6C197.5,279,197.7,279.1,197.8,279L197.8,279z"/>
	<path class="st6" d="M208.6,267.9c-1,0.4-1.9,1.1-2.6,1.9c-1.2,1.6-0.7,3.4,0.5,4.9c0.1,0.1,0.2,0,0.2-0.1c-1.3-1.6-1.6-3.5,0-5.1
		c0.6-0.6,1.3-1.1,2.1-1.4C208.8,268.1,208.8,267.9,208.6,267.9L208.6,267.9z"/>
	<circle class="st17" cx="207.3" cy="282.9" r="1.3"/>
	<circle class="st17" cx="212.5" cy="277.7" r="1.3"/>
	<path class="st17" d="M212.3,284.8c0.5,0.5,0.5,1.3,0,1.8s-1.3,0.5-1.8,0s-0.5-1.3,0-1.8S211.8,284.3,212.3,284.8L212.3,284.8z"/>
	<path class="st17" d="M216.3,280.8c0.5,0.5,0.5,1.3,0,1.8s-1.3,0.5-1.8,0s-0.5-1.3,0-1.8C214.9,280.3,215.7,280.3,216.3,280.8
		L216.3,280.8z"/>
	<g class="st22">
		<circle class="st9" cx="207.3" cy="282.9" r="1.3"/>
		<circle class="st9" cx="212.5" cy="277.7" r="1.3"/>
		<path class="st9" d="M212.3,284.8c0.5,0.5,0.5,1.3,0,1.8s-1.3,0.5-1.8,0s-0.5-1.3,0-1.8S211.8,284.3,212.3,284.8L212.3,284.8z"/>
		<path class="st9" d="M216.3,280.8c0.5,0.5,0.5,1.3,0,1.8s-1.3,0.5-1.8,0s-0.5-1.3,0-1.8C214.9,280.3,215.7,280.3,216.3,280.8
			L216.3,280.8z"/>
	</g>
	<path class="st6" d="M363.9,142.6c-0.4-0.1-0.9,1.2-1.2,2.8c-0.2,0.8-0.2,1.7-0.1,2.5c-0.8,0.3-1.5,0.7-2.2,1.1
		c-1.3,0.9-2.2,2-2,2.3s1.5-0.2,2.8-1.1c0.8-0.5,1.5-1.2,2-2.1c0.4-0.8,0.7-1.6,0.8-2.5C364.4,144.1,364.3,142.7,363.9,142.6z"/>
	<path class="st6" d="M368.1,151.1c-0.9-0.4-1.9-0.6-2.9-0.5c-0.9,0.1-1.8,0.3-2.5,0.8c-1.5,0.7-2.5,1.5-2.4,1.9s1.5,0.1,3-0.6
		c0.8-0.3,1.5-0.8,2.1-1.4c0.7,0.5,1.4,0.9,2.2,1.1c1.5,0.6,2.9,0.7,3,0.3S369.6,151.6,368.1,151.1z"/>
	<path class="st6" d="M356.5,140.8c-0.4,0.2-0.1,1.5,0.6,3c0.3,0.8,0.8,1.5,1.4,2.1c-0.5,0.7-0.9,1.4-1.1,2.2
		c-0.6,1.5-0.7,2.9-0.3,3s1.1-1,1.7-2.5c0.4-0.9,0.6-1.9,0.5-2.9c-0.1-0.9-0.3-1.7-0.8-2.5C357.7,141.6,356.8,140.6,356.5,140.8z"/>
	<path class="st6" d="M338.6,167.9c-0.1-0.4,1.2-0.9,2.8-1.2c0.8-0.2,1.7-0.2,2.5-0.1c0.3-0.8,0.7-1.5,1.1-2.2c0.9-1.3,2-2.2,2.3-2
		s-0.2,1.5-1.1,2.8c-0.5,0.8-1.2,1.5-2.1,2c-0.8,0.4-1.6,0.7-2.5,0.8C340.1,168.4,338.7,168.3,338.6,167.9z"/>
	<path class="st6" d="M347.1,172.1c-0.4-0.9-0.6-1.9-0.5-2.9c0.1-0.9,0.3-1.7,0.8-2.5c0.7-1.5,1.5-2.5,1.9-2.4s0.1,1.5-0.6,3
		c-0.3,0.8-0.8,1.5-1.4,2.1c0.5,0.7,0.9,1.4,1.1,2.2c0.6,1.5,0.7,2.9,0.3,3S347.6,173.6,347.1,172.1z"/>
	<path class="st6" d="M336.8,160.5c0.2-0.4,1.5-0.1,3,0.6c0.8,0.3,1.5,0.8,2.1,1.4c0.7-0.5,1.4-0.9,2.2-1.1c1.5-0.6,2.9-0.7,3-0.3
		s-1,1.1-2.5,1.7c-0.9,0.4-1.9,0.6-2.9,0.5c-0.9-0.1-1.8-0.3-2.5-0.8C337.7,161.7,336.6,160.8,336.8,160.5z"/>
	<path class="st17" d="M345.8,152.1c0,1.2,0.9,2.1,2.1,2.1s2.1-0.9,2.1-2.1c0-1.2-0.9-2.1-2.1-2.1l0,0v2.1H345.8z"/>
	<path class="st20" d="M345.8,152.1c0,1.2,0.9,2.1,2.1,2.1s2.1-0.9,2.1-2.1c0-1.2-0.9-2.1-2.1-2.1l0,0v2.1H345.8z"/>
	<path class="st17" d="M345.4,164.7c0.8,1.6,1.8,3,3,4.2c5.4,5.4,13.3,6,17.8,1.6s3.8-12.5-1.5-17.8c-1.2-1.2-2.7-2.2-4.2-3
		L345.4,164.7z"/>
	<path class="st16" d="M345.4,164.7c0.8,1.6,1.8,3,3,4.2c5.4,5.4,13.3,6,17.8,1.6s3.8-12.5-1.5-17.8c-1.2-1.2-2.7-2.2-4.2-3
		L345.4,164.7z"/>
	<path class="st17" d="M346.9,163.2l12-12.1c-3.8-1.9-8.1-1.5-10.9,1.2S345,159.4,346.9,163.2z"/>
	<path class="st21" d="M346.9,163.2l12-12.1c-3.8-1.9-8.1-1.5-10.9,1.2S345,159.4,346.9,163.2z"/>
	<path class="st20" d="M345.4,164.7c0.8,1.6,1.8,3,3,4.2c5.4,5.4,13.3,6,17.8,1.6l-13.3-13.3L345.4,164.7z"/>
	<path class="st6" d="M335.7,157.9c0.5-1.3,1.3-2.5,2.3-3.5c2.6-2.6,5.8-2.1,8.5,0.1c0.2,0.1,0.5-0.1,0.3-0.3
		c-2.5-1.9-5.5-2.8-8.2-0.8c-1.4,1.2-2.5,2.7-3.2,4.4C335.2,158.1,335.6,158.2,335.7,157.9L335.7,157.9z"/>
	<path class="st6" d="M353.6,139.5c-1.7,0.7-3.2,1.8-4.4,3.2c-2.1,2.7-1.2,5.7,0.8,8.2c0.1,0.2,0.4-0.1,0.2-0.3
		c-2.1-2.7-2.6-5.9,0-8.5c1-1,2.2-1.8,3.5-2.3C353.9,139.8,353.8,139.4,353.6,139.5z"/>
	<path class="st17" d="M353.1,162.9c0.8,0.8,0.8,2.2,0,3.1c-0.8,0.8-2.2,0.8-3.1,0c-0.8-0.8-0.8-2.2,0-3
		C350.9,162.1,352.2,162.1,353.1,162.9L353.1,162.9z"/>
	<path class="st17" d="M361.8,154.3c0.8,0.8,0.8,2.2,0,3.1c-0.8,0.8-2.2,0.8-3.1,0c-0.8-0.8-0.8-2.2,0-3
		C359.5,153.4,360.9,153.4,361.8,154.3C361.7,154.3,361.8,154.3,361.8,154.3z"/>
	<circle class="st17" cx="358.3" cy="169.1" r="2.2"/>
	<path class="st17" d="M366.4,161c0.8,0.8,0.8,2.2,0,3.1c-0.8,0.8-2.2,0.8-3.1,0c-0.8-0.8-0.8-2.2,0-3.1l0,0
		C364.2,160.2,365.6,160.2,366.4,161z"/>
	<g class="st22">
		<path class="st9" d="M353.1,162.9c0.8,0.8,0.8,2.2,0,3.1c-0.8,0.8-2.2,0.8-3.1,0c-0.8-0.8-0.8-2.2,0-3
			C350.9,162.1,352.2,162.1,353.1,162.9L353.1,162.9z"/>
		<path class="st9" d="M361.8,154.3c0.8,0.8,0.8,2.2,0,3.1c-0.8,0.8-2.2,0.8-3.1,0c-0.8-0.8-0.8-2.2,0-3
			C359.5,153.4,360.9,153.4,361.8,154.3C361.7,154.3,361.8,154.3,361.8,154.3z"/>
		<circle class="st9" cx="358.3" cy="169.1" r="2.2"/>
		<path class="st9" d="M366.4,161c0.8,0.8,0.8,2.2,0,3.1c-0.8,0.8-2.2,0.8-3.1,0c-0.8-0.8-0.8-2.2,0-3.1l0,0
			C364.2,160.2,365.6,160.2,366.4,161z"/>
	</g>
</g>
<path class="st17" d="M349.6,132.8c-13.9,2.5-23.2,15.7-20.7,29.6c2.5,13.9,15.7,23.2,29.6,20.7s23.2-15.7,20.7-29.6
	C376.8,139.6,363.5,130.3,349.6,132.8z M357.6,178.2c-11.2,2-21.8-5.5-23.8-16.7s5.5-21.8,16.7-23.8s21.8,5.5,23.8,16.7l0,0
	C376.3,165.5,368.8,176.2,357.6,178.2L357.6,178.2z"/>
<path d="M392.6,194.9L392.6,194.9c-0.8,0.8-2,0.8-2.8,0l-18.4-18.4c-0.8-0.8-0.8-2,0-2.8l0,0c0.8-0.8,2-0.8,2.8,0l18.4,18.4
	C393.4,192.8,393.4,194.1,392.6,194.9z"/>
<g id="freepik--Books--inject-136">
	<g>
		<g class="st23">
			<defs>
				<rect id="SVGID_5_" x="3.6" y="377.2" class="st23" width="150.1" height="50.1"/>
			</defs>
			<clipPath id="SVGID_6_">
				<use xlink:href="#SVGID_5_"  style="overflow:visible;"/>
			</clipPath>
			<g class="st24">
				<g>
					<g>
						<g>
							<path class="st25" d="M51.8,421.7c-0.6,0-1-0.3-1-0.6s0.5-0.6,1-0.6h28.9c0.6,0,1,0.3,1,0.6c0,0.4-0.5,0.6-1.1,0.6H51.8
								 M88.3,421.7c-0.6,0-1-0.3-1-0.6s0.5-0.6,1-0.6h52.5c0.6,0,1,0.3,1,0.6c0,0.4-0.4,0.6-1,0.6H88.3 M51.8,416.4
								c-0.6,0-1-0.3-1-0.6s0.5-0.6,1-0.6H64c0.6,0,1,0.3,1,0.6c0.1,0.3-0.4,0.6-1,0.6H51.8 M71.6,416.4c-0.6,0-1-0.3-1-0.6
								s0.5-0.6,1-0.6H127c0.6,0,1,0.3,1,0.6s-0.4,0.6-1,0.6H71.6 M134.8,416.4c-0.6,0-1-0.3-1-0.6s0.5-0.6,1-0.6h6
								c0.6,0,1,0.3,1,0.6s-0.4,0.6-1,0.6H134.8 M150.5,411.1H47.4c-6.2,4.1-6.2,10.4,0,14.5h103c-0.4-2.4-0.7-4.8-0.7-7.1
								C149.8,416,150,413.6,150.5,411.1"/>
							<path class="st26" d="M48.9,409.4H9.8l-0.4,0.2c-3.9,2.4-5.8,5.6-5.8,8.7s1.9,6.3,5.8,8.7l0.4,0.3h39.1h-2.6l-0.1-0.1
								c-3.7-2.2-5.9-5.2-6.1-8.4c-0.2-3.4,1.9-6.7,5.9-9.1l0.4-0.2h2.3L48.9,409.4"/>
							<path class="st17" d="M151.9,409.5H48.7h-2.3l-0.4,0.2c-4,2.4-6.1,5.7-5.9,9.1c0.2,3.2,2.4,6.2,6.1,8.4l0.1,0.1h2.6h102.9
								c0.8,0,1.4-0.4,1.4-0.9c0-0.4-0.6-0.8-1.4-0.8h-1.4h-103c-6.2-4.1-6.2-10.4,0-14.5h103.1h1.4c0.8,0,1.4-0.3,1.4-0.8
								C153.3,409.9,152.7,409.5,151.9,409.5"/>
							<path class="st9" d="M140.8,415.2h-6c-0.5,0-1,0.3-1,0.6s0.4,0.6,1,0.6h6c0.6,0,1-0.3,1-0.6S141.4,415.2,140.8,415.2"/>
							<path class="st9" d="M127,415.2H71.6c-0.5,0-1,0.3-1,0.6s0.4,0.6,1,0.6H127c0.6,0,1-0.3,1-0.6S127.6,415.2,127,415.2"/>
							<path class="st9" d="M64,415.2H51.8c-0.5,0-1,0.3-1,0.6s0.4,0.6,1,0.6H64c0.6,0,1.1-0.3,1-0.6C65,415.5,64.6,415.2,64,415.2"
								/>
							<path class="st9" d="M140.8,420.5H88.3c-0.5,0-1,0.3-1,0.6s0.4,0.6,1,0.6h52.5c0.6,0,1-0.2,1-0.6
								C141.8,420.8,141.4,420.5,140.8,420.5"/>
							<path class="st9" d="M80.7,420.5H51.8c-0.5,0-1,0.3-1,0.6s0.4,0.6,1,0.6h28.8c0.6,0,1.1-0.2,1.1-0.6
								C81.7,420.8,81.3,420.5,80.7,420.5"/>
							<path class="st27" d="M58.4,388.4c-0.5,0-0.9-0.2-0.9-0.6c0-0.3,0.4-0.6,0.9-0.6h25.9c0.5,0,0.9,0.2,0.9,0.6
								c0,0.3-0.4,0.6-0.9,0.6H58.4 M91.2,388.4c-0.5,0-0.9-0.2-0.9-0.6c0-0.3,0.4-0.6,0.9-0.6h47.3c0.5,0,0.9,0.3,0.9,0.6
								s-0.4,0.6-0.9,0.6H91.2 M58.4,383.6c-0.5,0-0.9-0.2-0.9-0.6c0-0.3,0.4-0.6,0.9-0.6h11.1c0.5,0,0.9,0.2,0.9,0.6
								c-0.1,0.3-0.5,0.6-1,0.6H58.4 M76.2,383.6c-0.5,0-0.9-0.2-0.9-0.6c0-0.3,0.4-0.6,0.9-0.6H126c0.5,0,0.9,0.2,0.9,0.6
								c0.1,0.3-0.3,0.6-0.9,0.6c0,0,0,0,0,0h0H76.2 M133.1,383.6c-0.5,0-0.9-0.3-0.9-0.6c0-0.3,0.4-0.6,0.9-0.6h5.4
								c0.5,0,0.9,0.3,0.9,0.6c0,0.3-0.4,0.6-0.9,0.6H133.1 M147.2,378.8H54.4c-2.8,1.8-4.2,4.2-4.2,6.5c0,2.3,1.4,4.7,4.2,6.5h92.7
								c-0.4-2.1-0.6-4.3-0.6-6.4C146.6,383.2,146.8,381,147.2,378.8"/>
							<path class="st28" d="M53.2,377.3H20.6l-0.4,0.2c-3.5,2.1-5.2,5-5.2,7.8c0,2.8,1.7,5.7,5.2,7.8l0.4,0.2h35.2h-2.4l-0.1-0.1
								c-3.3-2-5.3-4.7-5.5-7.6c0-0.1,0-0.3,0-0.4c0-2.9,1.9-5.7,5.2-7.8L53.2,377.3"/>
							<path class="st29" d="M148.4,377.2h-95l-0.4,0.2c-3.3,2.1-5.2,4.8-5.2,7.8c0,0.1,0,0.3,0,0.4c0.2,2.9,2.2,5.6,5.5,7.6
								l0.1,0.1h4h91c0.7,0,1.2-0.3,1.2-0.7c0-0.5-0.5-0.8-1.2-0.8h-1.3H54.4c-2.8-1.8-4.2-4.1-4.2-6.5c0-2.3,1.4-4.7,4.2-6.5h94
								c0.7,0,1.2-0.4,1.2-0.8C149.6,377.5,149.1,377.2,148.4,377.2"/>
							<path class="st9" d="M138.5,382.4h-5.4c-0.5,0-0.9,0.3-0.9,0.6c0,0.3,0.4,0.6,0.9,0.6h5.4c0.5,0,0.9-0.3,0.9-0.6
								C139.4,382.7,139,382.4,138.5,382.4"/>
							<path class="st9" d="M126,382.4H76.2c-0.5,0-0.9,0.3-0.9,0.6c0,0.4,0.4,0.6,0.9,0.6H126h0c0,0,0,0,0,0c0.6,0,1-0.3,0.9-0.6
								C126.9,382.6,126.5,382.4,126,382.4"/>
							<path class="st9" d="M69.5,382.4H58.4c-0.5,0-0.9,0.3-0.9,0.6c0,0.4,0.4,0.6,0.9,0.6h11c0.5,0,0.9-0.3,1-0.6
								C70.4,382.6,70,382.4,69.5,382.4"/>
							<path class="st9" d="M138.5,387.2H91.2c-0.5,0-0.9,0.3-0.9,0.6c0,0.4,0.4,0.6,0.9,0.6h47.3c0.5,0,0.9-0.3,0.9-0.6
								S139,387.2,138.5,387.2"/>
							<path class="st9" d="M84.3,387.2H58.4c-0.5,0-0.9,0.3-0.9,0.6c0,0.4,0.4,0.6,0.9,0.6h25.9c0.5,0,0.9-0.3,0.9-0.6
								C85.2,387.4,84.8,387.2,84.3,387.2"/>
							<path class="st25" d="M62.3,404.5c-0.5,0-0.9-0.3-0.9-0.6c0-0.4,0.4-0.6,0.9-0.6h5.4c0.5,0,0.9,0.3,0.9,0.6s-0.4,0.6-0.9,0.6
								H62.3 M74.7,404.5c-0.5,0-0.9-0.3-0.9-0.6s0.4-0.6,0.9-0.6h49.9c0.5,0,0.9,0.2,0.9,0.6c0,0.3-0.4,0.6-0.9,0.6H74.7
								 M131.4,404.5c-0.5,0-0.9-0.3-0.9-0.6c-0.1-0.4,0.3-0.6,0.9-0.6h11.1c0.5,0,0.9,0.2,0.9,0.6c0,0.3-0.4,0.6-0.9,0.6H131.4
								 M62.3,399.7c-0.5,0-0.9-0.3-0.9-0.6c0-0.3,0.4-0.6,0.9-0.6h47.3c0.5,0,0.9,0.2,0.9,0.6c0,0.3-0.4,0.6-0.9,0.6H62.3
								 M116.5,399.7c-0.5,0-0.9-0.3-0.9-0.6c0-0.3,0.4-0.6,0.9-0.6h25.9c0.5,0,0.9,0.2,0.9,0.6c0,0.3-0.4,0.6-0.9,0.6H116.5
								 M151.1,394.9H58.4c-2.8,1.8-4.2,4.2-4.2,6.5s1.4,4.7,4.2,6.5H151c-0.4-2.1-0.6-4.3-0.6-6.4
								C150.5,399.3,150.7,397.1,151.1,394.9"/>
							<path class="st17" d="M57.2,393.4H24.5l-0.4,0.2c-7,4.3-7,11.3,0,15.6l0.4,0.2h35.2h-2.3l-0.1-0.1c-3.3-2-5.3-4.7-5.5-7.6
								c0-0.1,0-0.3,0-0.4c0-2.9,1.9-5.7,5.2-7.8L57.2,393.4"/>
							<path class="st30" d="M152.4,393.3h-4h-91l-0.4,0.2c-3.3,2.1-5.2,4.8-5.2,7.8c0,0.1,0,0.3,0,0.4c0.2,2.9,2.2,5.6,5.5,7.6
								l0.1,0.1h95c0.6,0,1.2-0.3,1.2-0.7c0-0.5-0.5-0.8-1.2-0.8H151H58.4c-2.8-1.8-4.2-4.1-4.2-6.5s1.4-4.7,4.2-6.5h94
								c0.6,0,1.2-0.4,1.2-0.8C153.6,393.6,153.1,393.3,152.4,393.3"/>
							<path class="st9" d="M67.7,403.3h-5.4c-0.5,0-0.9,0.2-0.9,0.6c0,0.3,0.4,0.6,0.9,0.6h5.4c0.5,0,0.9-0.3,0.9-0.6
								S68.2,403.3,67.7,403.3"/>
							<path class="st9" d="M124.6,403.3H74.7c-0.5,0-0.9,0.3-0.9,0.6s0.4,0.6,0.9,0.6h49.9c0.5,0,0.9-0.3,0.9-0.6
								C125.5,403.5,125.1,403.3,124.6,403.3"/>
							<path class="st9" d="M142.5,403.3h-11.1c-0.6,0-1,0.2-0.9,0.6c0,0.3,0.4,0.6,0.9,0.6h11.1c0.5,0,0.9-0.3,0.9-0.6
								C143.4,403.5,143,403.3,142.5,403.3"/>
							<path class="st9" d="M109.6,398.5H62.3c-0.5,0-0.9,0.3-0.9,0.6c0,0.3,0.4,0.6,0.9,0.6h47.3c0.5,0,0.9-0.3,0.9-0.6
								C110.5,398.7,110.1,398.5,109.6,398.5"/>
							<path class="st9" d="M142.4,398.5h-25.9c-0.5,0-0.9,0.3-0.9,0.6c0,0.3,0.4,0.6,0.9,0.6h25.9c0.5,0,0.9-0.3,0.9-0.6
								C143.3,398.7,142.9,398.5,142.4,398.5"/>
						</g>
					</g>
				</g>
			</g>
		</g>
	</g>
</g>
</svg>
