<?xml version="1.0" encoding="utf-8"?>
<!-- Generator: Adobe Illustrator 25.0.0, SVG Export Plug-In . SVG Version: 6.00 Build 0)  -->
<svg version="1.1" id="Calque_1" xmlns="http://www.w3.org/2000/svg" xmlns:xlink="http://www.w3.org/1999/xlink" x="0px" y="0px"
	 viewBox="0 0 566.9 283.5" style="enable-background:new 0 0 566.9 283.5;" xml:space="preserve">
<style type="text/css">
	.st0{fill:url(#SVGID_1_);}
	.st1{fill:#E30613;}
	.st2{fill:#51B160;}
</style>
<linearGradient id="SVGID_1_" gradientUnits="userSpaceOnUse" x1="2.4167" y1="141.7323" x2="566.5112" y2="141.7323">
	<stop  offset="0" style="stop-color:#51B160"/>
	<stop  offset="1" style="stop-color:#E30613"/>
</linearGradient>
<polygon class="st0" points="566.5,141.7 425.2,282 402.5,282 542.3,141.7 404.5,23.9 164.4,282 2.4,141.7 141.7,1.4 164.4,1.4 
	28.6,141.7 163.4,258 402.5,1.4 "/>
<path class="st1" d="M365.9,230"/>
<g>
	<g>
		<path class="st2" d="M357.3,282v-4.6c13.4-1.3,13.9-2.3,13.7-19.7l0.2-66.5c-13.4,29.8-34.9,76.4-40.6,90.8h-4.2
			c-5.5-14.8-24-59.7-36.3-89.2c-2.8,57-2.9,69.9-2.9,73c0.2,9.1,4.2,10.4,15.3,11.6v4.6h-38.6v-4.6c9.5-1,13.4-2.9,14.7-11.7
			c1-7.2,1.1-13,5.4-72.5c0.7-8.5-1-11.2-15.3-12.6v-4.6h28.4l36,82.6l38.6-82.6H400v4.6c-14,1.6-15.8,3.1-15.5,14.5l0.7,62.6
			c0.7,17.4,1.1,18.3,15.5,19.7v4.6H357.3z"/>
	</g>
</g>
<g>
	<g>
		<path class="st1" d="M164.6,1.3h44.6V6c-13,1.2-15.4,2.3-15.4,17.2v28.7c3.3-0.3,7.2-3,12-7.7c9.4-8.9,20.5-20.2,28.2-28.9
			c5-5.7,4.5-7.8-2.7-8.9L226.7,6V1.3h40.6V6c-12.5,1.5-16.9,2.3-28.1,13.9c-5,4.8-18,17.5-28.7,28.1c12.7,15,31.2,36.4,39.9,45.6
			c8.5,9.2,10.7,10.5,21,11.7v4.7h-26.7c-12.9-14.5-26.4-30.7-41.6-48.4c-3.8-4.7-6.7-5-9.4-4.8v31.7c0,14.5,1.5,15.7,15.4,16.9v4.7
			h-44.6v-4.7c13.7-1.2,15-2.3,15-16.9V23.2c0-15-1.2-16.2-15-17.2V1.3z"/>
	</g>
</g>
</svg>
